<mxfile host="Electron" modified="2023-11-21T21:54:31.653Z" agent="Mozilla/5.0 (Windows NT 10.0; Win64; x64) AppleWebKit/537.36 (KHTML, like Gecko) draw.io/22.1.2 Chrome/114.0.5735.289 Electron/25.9.4 Safari/537.36" etag="Q5PECYitN8GI0AJZMJ-N" version="22.1.2" type="device">
  <diagram name="Page-1" id="9L_iSFYxcWo2DNKwxm4P">
    <mxGraphModel dx="2412" dy="2461" grid="1" gridSize="10" guides="1" tooltips="1" connect="1" arrows="1" fold="1" page="1" pageScale="1" pageWidth="1169" pageHeight="827" math="0" shadow="0">
      <root>
        <mxCell id="0" />
        <mxCell id="1" parent="0" />
        <mxCell id="WV2E-qCdzKCkwWMModYk-13" style="edgeStyle=orthogonalEdgeStyle;rounded=0;orthogonalLoop=1;jettySize=auto;html=1;entryX=0;entryY=0.5;entryDx=0;entryDy=0;" parent="1" source="WV2E-qCdzKCkwWMModYk-2" target="WV2E-qCdzKCkwWMModYk-8" edge="1">
          <mxGeometry relative="1" as="geometry" />
        </mxCell>
        <mxCell id="WV2E-qCdzKCkwWMModYk-2" value="" style="ellipse;whiteSpace=wrap;html=1;aspect=fixed;" parent="1" vertex="1">
          <mxGeometry x="95" y="160" width="40" height="40" as="geometry" />
        </mxCell>
        <mxCell id="WV2E-qCdzKCkwWMModYk-5" style="edgeStyle=orthogonalEdgeStyle;rounded=0;orthogonalLoop=1;jettySize=auto;html=1;entryX=0;entryY=0.5;entryDx=0;entryDy=0;" parent="1" source="WV2E-qCdzKCkwWMModYk-3" target="WV2E-qCdzKCkwWMModYk-2" edge="1">
          <mxGeometry relative="1" as="geometry" />
        </mxCell>
        <mxCell id="WV2E-qCdzKCkwWMModYk-3" value="" style="rounded=0;whiteSpace=wrap;html=1;gradientColor=none;fillColor=#000000;" parent="1" vertex="1">
          <mxGeometry x="25" y="160" width="10" height="40" as="geometry" />
        </mxCell>
        <mxCell id="WV2E-qCdzKCkwWMModYk-6" value="&lt;h6&gt;&lt;font style=&quot;font-size: 9px;&quot;&gt;exp(8h)&lt;/font&gt;&lt;/h6&gt;" style="text;html=1;align=center;verticalAlign=middle;resizable=0;points=[];autosize=1;strokeColor=none;fillColor=none;" parent="1" vertex="1">
          <mxGeometry y="180" width="60" height="60" as="geometry" />
        </mxCell>
        <mxCell id="WV2E-qCdzKCkwWMModYk-7" value="&lt;h6&gt;spracovávaná objednávka&lt;/h6&gt;" style="text;html=1;align=center;verticalAlign=middle;resizable=0;points=[];autosize=1;strokeColor=none;fillColor=none;labelBackgroundColor=none;" parent="1" vertex="1">
          <mxGeometry x="55" y="120" width="120" height="60" as="geometry" />
        </mxCell>
        <mxCell id="WV2E-qCdzKCkwWMModYk-8" value="" style="rounded=0;whiteSpace=wrap;html=1;gradientColor=none;fillColor=#000000;" parent="1" vertex="1">
          <mxGeometry x="185" y="160" width="10" height="40" as="geometry" />
        </mxCell>
        <mxCell id="IB5I2fbD3hVqZCZ33rX3-259" style="edgeStyle=orthogonalEdgeStyle;rounded=0;orthogonalLoop=1;jettySize=auto;html=1;" edge="1" parent="1" source="WV2E-qCdzKCkwWMModYk-9" target="WV2E-qCdzKCkwWMModYk-92">
          <mxGeometry relative="1" as="geometry" />
        </mxCell>
        <mxCell id="WV2E-qCdzKCkwWMModYk-9" value="" style="rounded=0;whiteSpace=wrap;html=1;gradientColor=none;fillColor=#000000;" parent="1" vertex="1">
          <mxGeometry x="1460" y="160" width="10" height="40" as="geometry" />
        </mxCell>
        <mxCell id="IB5I2fbD3hVqZCZ33rX3-263" style="edgeStyle=orthogonalEdgeStyle;rounded=0;orthogonalLoop=1;jettySize=auto;html=1;exitX=1;exitY=0.25;exitDx=0;exitDy=0;entryX=1;entryY=0.5;entryDx=0;entryDy=0;" edge="1" parent="1" source="WV2E-qCdzKCkwWMModYk-10" target="WV2E-qCdzKCkwWMModYk-88">
          <mxGeometry relative="1" as="geometry">
            <Array as="points">
              <mxPoint x="1630" y="170" />
              <mxPoint x="1630" y="110" />
            </Array>
          </mxGeometry>
        </mxCell>
        <mxCell id="IB5I2fbD3hVqZCZ33rX3-264" style="edgeStyle=orthogonalEdgeStyle;rounded=0;orthogonalLoop=1;jettySize=auto;html=1;entryX=0;entryY=0.5;entryDx=0;entryDy=0;" edge="1" parent="1" source="WV2E-qCdzKCkwWMModYk-10" target="IB5I2fbD3hVqZCZ33rX3-244">
          <mxGeometry relative="1" as="geometry" />
        </mxCell>
        <mxCell id="WV2E-qCdzKCkwWMModYk-10" value="" style="rounded=0;whiteSpace=wrap;html=1;gradientColor=none;fillColor=#000000;" parent="1" vertex="1">
          <mxGeometry x="1610" y="160" width="10" height="40" as="geometry" />
        </mxCell>
        <mxCell id="WV2E-qCdzKCkwWMModYk-11" value="" style="rounded=0;whiteSpace=wrap;html=1;gradientColor=none;fillColor=#000000;" parent="1" vertex="1">
          <mxGeometry x="410" y="40" width="10" height="40" as="geometry" />
        </mxCell>
        <mxCell id="IB5I2fbD3hVqZCZ33rX3-255" style="edgeStyle=orthogonalEdgeStyle;rounded=0;orthogonalLoop=1;jettySize=auto;html=1;exitX=1;exitY=0.5;exitDx=0;exitDy=0;" edge="1" parent="1" source="WV2E-qCdzKCkwWMModYk-12" target="WV2E-qCdzKCkwWMModYk-17">
          <mxGeometry relative="1" as="geometry" />
        </mxCell>
        <mxCell id="IB5I2fbD3hVqZCZ33rX3-288" style="edgeStyle=orthogonalEdgeStyle;rounded=0;orthogonalLoop=1;jettySize=auto;html=1;exitX=1;exitY=0.75;exitDx=0;exitDy=0;entryX=1;entryY=0;entryDx=0;entryDy=0;" edge="1" parent="1" source="WV2E-qCdzKCkwWMModYk-10" target="WV2E-qCdzKCkwWMModYk-76">
          <mxGeometry relative="1" as="geometry">
            <Array as="points">
              <mxPoint x="1630" y="190" />
              <mxPoint x="1630" y="230" />
              <mxPoint x="1314" y="230" />
            </Array>
          </mxGeometry>
        </mxCell>
        <mxCell id="WV2E-qCdzKCkwWMModYk-12" value="" style="rounded=0;whiteSpace=wrap;html=1;gradientColor=none;fillColor=#000000;" parent="1" vertex="1">
          <mxGeometry x="1320" y="160" width="10" height="40" as="geometry" />
        </mxCell>
        <mxCell id="WV2E-qCdzKCkwWMModYk-34" style="edgeStyle=orthogonalEdgeStyle;rounded=0;orthogonalLoop=1;jettySize=auto;html=1;entryX=0;entryY=0.5;entryDx=0;entryDy=0;" parent="1" source="WV2E-qCdzKCkwWMModYk-14" target="WV2E-qCdzKCkwWMModYk-26" edge="1">
          <mxGeometry relative="1" as="geometry" />
        </mxCell>
        <mxCell id="WV2E-qCdzKCkwWMModYk-36" style="edgeStyle=orthogonalEdgeStyle;rounded=0;orthogonalLoop=1;jettySize=auto;html=1;entryX=1;entryY=0.5;entryDx=0;entryDy=0;" parent="1" source="WV2E-qCdzKCkwWMModYk-14" target="WV2E-qCdzKCkwWMModYk-25" edge="1">
          <mxGeometry relative="1" as="geometry">
            <mxPoint x="265" y="260" as="targetPoint" />
            <Array as="points">
              <mxPoint x="265" y="260" />
            </Array>
          </mxGeometry>
        </mxCell>
        <mxCell id="WV2E-qCdzKCkwWMModYk-14" value="" style="ellipse;whiteSpace=wrap;html=1;aspect=fixed;" parent="1" vertex="1">
          <mxGeometry x="245" y="160" width="40" height="40" as="geometry" />
        </mxCell>
        <mxCell id="IB5I2fbD3hVqZCZ33rX3-65" style="edgeStyle=orthogonalEdgeStyle;rounded=0;orthogonalLoop=1;jettySize=auto;html=1;entryX=0;entryY=0.5;entryDx=0;entryDy=0;" edge="1" parent="1" source="WV2E-qCdzKCkwWMModYk-15" target="WV2E-qCdzKCkwWMModYk-27">
          <mxGeometry relative="1" as="geometry" />
        </mxCell>
        <mxCell id="WV2E-qCdzKCkwWMModYk-15" value="" style="ellipse;whiteSpace=wrap;html=1;aspect=fixed;" parent="1" vertex="1">
          <mxGeometry x="920" y="160" width="40" height="40" as="geometry" />
        </mxCell>
        <mxCell id="IB5I2fbD3hVqZCZ33rX3-256" style="edgeStyle=orthogonalEdgeStyle;rounded=0;orthogonalLoop=1;jettySize=auto;html=1;entryX=0;entryY=0.5;entryDx=0;entryDy=0;" edge="1" parent="1" source="WV2E-qCdzKCkwWMModYk-17" target="WV2E-qCdzKCkwWMModYk-9">
          <mxGeometry relative="1" as="geometry" />
        </mxCell>
        <mxCell id="WV2E-qCdzKCkwWMModYk-17" value="" style="ellipse;whiteSpace=wrap;html=1;aspect=fixed;" parent="1" vertex="1">
          <mxGeometry x="1370" y="160" width="40" height="40" as="geometry" />
        </mxCell>
        <mxCell id="IB5I2fbD3hVqZCZ33rX3-362" style="edgeStyle=orthogonalEdgeStyle;rounded=0;orthogonalLoop=1;jettySize=auto;html=1;entryX=0;entryY=0.75;entryDx=0;entryDy=0;" edge="1" parent="1" source="WV2E-qCdzKCkwWMModYk-18" target="WV2E-qCdzKCkwWMModYk-96">
          <mxGeometry relative="1" as="geometry">
            <mxPoint x="760" y="320" as="targetPoint" />
            <Array as="points">
              <mxPoint x="795" y="320" />
              <mxPoint x="715" y="320" />
              <mxPoint x="715" y="260" />
            </Array>
          </mxGeometry>
        </mxCell>
        <mxCell id="WV2E-qCdzKCkwWMModYk-18" value="" style="ellipse;whiteSpace=wrap;html=1;aspect=fixed;" parent="1" vertex="1">
          <mxGeometry x="775" y="340" width="40" height="40" as="geometry" />
        </mxCell>
        <mxCell id="WV2E-qCdzKCkwWMModYk-103" style="edgeStyle=orthogonalEdgeStyle;rounded=0;orthogonalLoop=1;jettySize=auto;html=1;entryX=0;entryY=0.5;entryDx=0;entryDy=0;" parent="1" source="WV2E-qCdzKCkwWMModYk-19" target="WV2E-qCdzKCkwWMModYk-100" edge="1">
          <mxGeometry relative="1" as="geometry" />
        </mxCell>
        <mxCell id="WV2E-qCdzKCkwWMModYk-19" value="" style="ellipse;whiteSpace=wrap;html=1;aspect=fixed;" parent="1" vertex="1">
          <mxGeometry x="615" y="160" width="40" height="40" as="geometry" />
        </mxCell>
        <mxCell id="WV2E-qCdzKCkwWMModYk-107" style="edgeStyle=orthogonalEdgeStyle;rounded=0;orthogonalLoop=1;jettySize=auto;html=1;entryX=0;entryY=0.5;entryDx=0;entryDy=0;" parent="1" source="WV2E-qCdzKCkwWMModYk-20" target="WV2E-qCdzKCkwWMModYk-97" edge="1">
          <mxGeometry relative="1" as="geometry" />
        </mxCell>
        <mxCell id="WV2E-qCdzKCkwWMModYk-20" value="" style="ellipse;whiteSpace=wrap;html=1;aspect=fixed;" parent="1" vertex="1">
          <mxGeometry x="759" y="160" width="40" height="40" as="geometry" />
        </mxCell>
        <mxCell id="WV2E-qCdzKCkwWMModYk-59" style="edgeStyle=orthogonalEdgeStyle;rounded=0;orthogonalLoop=1;jettySize=auto;html=1;entryX=0;entryY=0.25;entryDx=0;entryDy=0;" parent="1" source="WV2E-qCdzKCkwWMModYk-21" target="WV2E-qCdzKCkwWMModYk-30" edge="1">
          <mxGeometry relative="1" as="geometry">
            <Array as="points">
              <mxPoint x="520" y="100" />
              <mxPoint x="520" y="170" />
            </Array>
          </mxGeometry>
        </mxCell>
        <mxCell id="IB5I2fbD3hVqZCZ33rX3-16" style="edgeStyle=orthogonalEdgeStyle;rounded=0;orthogonalLoop=1;jettySize=auto;html=1;exitX=0.5;exitY=0;exitDx=0;exitDy=0;entryX=0;entryY=0.5;entryDx=0;entryDy=0;" edge="1" parent="1" source="WV2E-qCdzKCkwWMModYk-21" target="WV2E-qCdzKCkwWMModYk-28">
          <mxGeometry relative="1" as="geometry" />
        </mxCell>
        <mxCell id="WV2E-qCdzKCkwWMModYk-21" value="" style="ellipse;whiteSpace=wrap;html=1;aspect=fixed;" parent="1" vertex="1">
          <mxGeometry x="615" y="80" width="40" height="40" as="geometry" />
        </mxCell>
        <mxCell id="WV2E-qCdzKCkwWMModYk-22" value="&lt;h6&gt;10000 kg&lt;/h6&gt;" style="ellipse;whiteSpace=wrap;html=1;aspect=fixed;" parent="1" vertex="1">
          <mxGeometry x="245" y="40" width="40" height="40" as="geometry" />
        </mxCell>
        <mxCell id="WV2E-qCdzKCkwWMModYk-50" style="edgeStyle=orthogonalEdgeStyle;rounded=0;orthogonalLoop=1;jettySize=auto;html=1;entryX=0;entryY=0.5;entryDx=0;entryDy=0;" parent="1" source="WV2E-qCdzKCkwWMModYk-23" target="WV2E-qCdzKCkwWMModYk-30" edge="1">
          <mxGeometry relative="1" as="geometry">
            <mxPoint x="535" y="180" as="targetPoint" />
          </mxGeometry>
        </mxCell>
        <mxCell id="WV2E-qCdzKCkwWMModYk-23" value="" style="ellipse;whiteSpace=wrap;html=1;aspect=fixed;" parent="1" vertex="1">
          <mxGeometry x="395" y="160" width="40" height="40" as="geometry" />
        </mxCell>
        <mxCell id="WV2E-qCdzKCkwWMModYk-24" value="" style="ellipse;whiteSpace=wrap;html=1;aspect=fixed;" parent="1" vertex="1">
          <mxGeometry x="95" y="240" width="40" height="40" as="geometry" />
        </mxCell>
        <mxCell id="WV2E-qCdzKCkwWMModYk-37" style="edgeStyle=orthogonalEdgeStyle;rounded=0;orthogonalLoop=1;jettySize=auto;html=1;" parent="1" source="WV2E-qCdzKCkwWMModYk-25" target="WV2E-qCdzKCkwWMModYk-24" edge="1">
          <mxGeometry relative="1" as="geometry" />
        </mxCell>
        <mxCell id="WV2E-qCdzKCkwWMModYk-25" value="" style="rounded=0;whiteSpace=wrap;html=1;gradientColor=none;fillColor=#000000;" parent="1" vertex="1">
          <mxGeometry x="185" y="240" width="10" height="40" as="geometry" />
        </mxCell>
        <mxCell id="WV2E-qCdzKCkwWMModYk-40" style="edgeStyle=orthogonalEdgeStyle;rounded=0;orthogonalLoop=1;jettySize=auto;html=1;entryX=0;entryY=0.5;entryDx=0;entryDy=0;" parent="1" source="WV2E-qCdzKCkwWMModYk-26" target="WV2E-qCdzKCkwWMModYk-23" edge="1">
          <mxGeometry relative="1" as="geometry" />
        </mxCell>
        <mxCell id="WV2E-qCdzKCkwWMModYk-26" value="" style="rounded=0;whiteSpace=wrap;html=1;gradientColor=none;fillColor=#000000;" parent="1" vertex="1">
          <mxGeometry x="325" y="160" width="10" height="40" as="geometry" />
        </mxCell>
        <mxCell id="IB5I2fbD3hVqZCZ33rX3-66" style="edgeStyle=orthogonalEdgeStyle;rounded=0;orthogonalLoop=1;jettySize=auto;html=1;entryX=0;entryY=0.5;entryDx=0;entryDy=0;" edge="1" parent="1" source="WV2E-qCdzKCkwWMModYk-27" target="WV2E-qCdzKCkwWMModYk-94">
          <mxGeometry relative="1" as="geometry" />
        </mxCell>
        <mxCell id="WV2E-qCdzKCkwWMModYk-27" value="" style="rounded=0;whiteSpace=wrap;html=1;gradientColor=none;fillColor=#000000;" parent="1" vertex="1">
          <mxGeometry x="1015" y="160" width="10" height="40" as="geometry" />
        </mxCell>
        <mxCell id="IB5I2fbD3hVqZCZ33rX3-368" style="edgeStyle=orthogonalEdgeStyle;rounded=0;orthogonalLoop=1;jettySize=auto;html=1;entryX=0;entryY=0.5;entryDx=0;entryDy=0;" edge="1" parent="1" source="WV2E-qCdzKCkwWMModYk-28" target="IB5I2fbD3hVqZCZ33rX3-248">
          <mxGeometry relative="1" as="geometry" />
        </mxCell>
        <mxCell id="WV2E-qCdzKCkwWMModYk-28" value="" style="rounded=0;whiteSpace=wrap;html=1;gradientColor=none;fillColor=#000000;" parent="1" vertex="1">
          <mxGeometry x="715" y="20" width="10" height="40" as="geometry" />
        </mxCell>
        <mxCell id="WV2E-qCdzKCkwWMModYk-29" value="" style="rounded=0;whiteSpace=wrap;html=1;gradientColor=none;fillColor=#000000;" parent="1" vertex="1">
          <mxGeometry x="870" y="340" width="10" height="40" as="geometry" />
        </mxCell>
        <mxCell id="WV2E-qCdzKCkwWMModYk-57" style="edgeStyle=orthogonalEdgeStyle;rounded=0;orthogonalLoop=1;jettySize=auto;html=1;entryX=0;entryY=0.5;entryDx=0;entryDy=0;" parent="1" source="WV2E-qCdzKCkwWMModYk-30" target="WV2E-qCdzKCkwWMModYk-19" edge="1">
          <mxGeometry relative="1" as="geometry" />
        </mxCell>
        <mxCell id="WV2E-qCdzKCkwWMModYk-30" value="" style="rounded=0;whiteSpace=wrap;html=1;gradientColor=none;fillColor=#000000;" parent="1" vertex="1">
          <mxGeometry x="535" y="160" width="10" height="40" as="geometry" />
        </mxCell>
        <mxCell id="WV2E-qCdzKCkwWMModYk-31" style="edgeStyle=orthogonalEdgeStyle;rounded=0;orthogonalLoop=1;jettySize=auto;html=1;exitX=1;exitY=0.5;exitDx=0;exitDy=0;entryX=0;entryY=0.5;entryDx=0;entryDy=0;" parent="1" source="WV2E-qCdzKCkwWMModYk-8" target="WV2E-qCdzKCkwWMModYk-14" edge="1">
          <mxGeometry relative="1" as="geometry" />
        </mxCell>
        <mxCell id="WV2E-qCdzKCkwWMModYk-32" value="&lt;h6 style=&quot;line-height: 120%;&quot;&gt;spracovávaná objednávka&lt;/h6&gt;" style="text;html=1;align=center;verticalAlign=middle;resizable=0;points=[];autosize=1;strokeColor=none;fillColor=none;labelBackgroundColor=none;" parent="1" vertex="1">
          <mxGeometry x="55" y="120" width="120" height="60" as="geometry" />
        </mxCell>
        <mxCell id="WV2E-qCdzKCkwWMModYk-33" value="&lt;h6&gt;&lt;font style=&quot;font-size: 9px;&quot;&gt;1 min.&lt;/font&gt;&lt;/h6&gt;" style="text;html=1;align=center;verticalAlign=middle;resizable=0;points=[];autosize=1;strokeColor=none;fillColor=none;" parent="1" vertex="1">
          <mxGeometry x="165" y="180" width="50" height="60" as="geometry" />
        </mxCell>
        <mxCell id="WV2E-qCdzKCkwWMModYk-38" value="&lt;h6&gt;nie je materiál&lt;/h6&gt;" style="text;html=1;align=center;verticalAlign=middle;resizable=0;points=[];autosize=1;strokeColor=none;fillColor=none;" parent="1" vertex="1">
          <mxGeometry x="75" y="265" width="80" height="60" as="geometry" />
        </mxCell>
        <mxCell id="WV2E-qCdzKCkwWMModYk-39" value="&lt;h6&gt;&lt;font style=&quot;font-size: 9px;&quot;&gt;p=1&lt;/font&gt;&lt;/h6&gt;" style="text;html=1;align=center;verticalAlign=middle;resizable=0;points=[];autosize=1;strokeColor=none;fillColor=none;" parent="1" vertex="1">
          <mxGeometry x="310" y="180" width="40" height="60" as="geometry" />
        </mxCell>
        <mxCell id="WV2E-qCdzKCkwWMModYk-41" value="&lt;h6&gt;X&lt;/h6&gt;" style="text;html=1;align=center;verticalAlign=middle;resizable=0;points=[];autosize=1;strokeColor=none;fillColor=none;" parent="1" vertex="1">
          <mxGeometry x="346" y="140" width="30" height="60" as="geometry" />
        </mxCell>
        <mxCell id="WV2E-qCdzKCkwWMModYk-42" value="&lt;h6&gt;1 deň&lt;/h6&gt;" style="text;html=1;align=center;verticalAlign=middle;resizable=0;points=[];autosize=1;strokeColor=none;fillColor=none;" parent="1" vertex="1">
          <mxGeometry x="395" y="63" width="40" height="60" as="geometry" />
        </mxCell>
        <mxCell id="WV2E-qCdzKCkwWMModYk-43" style="edgeStyle=orthogonalEdgeStyle;rounded=0;orthogonalLoop=1;jettySize=auto;html=1;entryX=1;entryY=0.5;entryDx=0;entryDy=0;" parent="1" source="WV2E-qCdzKCkwWMModYk-11" target="WV2E-qCdzKCkwWMModYk-22" edge="1">
          <mxGeometry relative="1" as="geometry" />
        </mxCell>
        <mxCell id="WV2E-qCdzKCkwWMModYk-44" value="&lt;h6&gt;5000 kg&lt;/h6&gt;" style="text;html=1;align=center;verticalAlign=middle;resizable=0;points=[];autosize=1;strokeColor=none;fillColor=none;" parent="1" vertex="1">
          <mxGeometry x="320" y="20" width="50" height="60" as="geometry" />
        </mxCell>
        <mxCell id="WV2E-qCdzKCkwWMModYk-35" value="&lt;h6&gt;kontrola prebehla&lt;/h6&gt;" style="text;html=1;align=center;verticalAlign=middle;resizable=0;points=[];autosize=1;strokeColor=none;fillColor=none;" parent="1" vertex="1">
          <mxGeometry x="220" y="120" width="90" height="60" as="geometry" />
        </mxCell>
        <mxCell id="WV2E-qCdzKCkwWMModYk-47" style="edgeStyle=orthogonalEdgeStyle;rounded=0;orthogonalLoop=1;jettySize=auto;html=1;exitX=0.934;exitY=0.761;exitDx=0;exitDy=0;exitPerimeter=0;entryX=0;entryY=0.25;entryDx=0;entryDy=0;" parent="1" source="WV2E-qCdzKCkwWMModYk-22" target="WV2E-qCdzKCkwWMModYk-26" edge="1">
          <mxGeometry relative="1" as="geometry">
            <mxPoint x="285" y="110" as="targetPoint" />
          </mxGeometry>
        </mxCell>
        <mxCell id="WV2E-qCdzKCkwWMModYk-48" value="&lt;h6&gt;0.25*X&lt;/h6&gt;" style="text;html=1;align=center;verticalAlign=middle;resizable=0;points=[];autosize=1;strokeColor=none;fillColor=none;" parent="1" vertex="1">
          <mxGeometry x="296" y="80" width="50" height="60" as="geometry" />
        </mxCell>
        <mxCell id="WV2E-qCdzKCkwWMModYk-49" value="&lt;h6&gt;&lt;font style=&quot;font-size: 8px;&quot;&gt;[pozn.: X značí počet kusov na výrobu]&lt;/font&gt;&lt;/h6&gt;" style="text;html=1;align=center;verticalAlign=middle;resizable=0;points=[];autosize=1;strokeColor=none;fillColor=none;" parent="1" vertex="1">
          <mxGeometry x="265" y="200" width="170" height="60" as="geometry" />
        </mxCell>
        <mxCell id="WV2E-qCdzKCkwWMModYk-52" value="&lt;h6&gt;Y = X &amp;gt; 5000 ? 5000:x&lt;/h6&gt;" style="text;html=1;align=center;verticalAlign=middle;resizable=0;points=[];autosize=1;strokeColor=none;fillColor=none;" parent="1" vertex="1">
          <mxGeometry x="425" y="140" width="100" height="60" as="geometry" />
        </mxCell>
        <mxCell id="WV2E-qCdzKCkwWMModYk-53" value="&lt;h6&gt;[pozn.: Y značí veľkosť jednej várky]&lt;/h6&gt;" style="text;html=1;align=center;verticalAlign=middle;resizable=0;points=[];autosize=1;strokeColor=none;fillColor=none;" parent="1" vertex="1">
          <mxGeometry x="270" y="220" width="160" height="60" as="geometry" />
        </mxCell>
        <mxCell id="WV2E-qCdzKCkwWMModYk-54" value="&lt;h6&gt;60 min.&lt;/h6&gt;" style="text;html=1;align=center;verticalAlign=middle;resizable=0;points=[];autosize=1;strokeColor=none;fillColor=none;" parent="1" vertex="1">
          <mxGeometry x="515" y="180" width="50" height="60" as="geometry" />
        </mxCell>
        <mxCell id="WV2E-qCdzKCkwWMModYk-55" value="&lt;h6&gt;Sklad&lt;/h6&gt;" style="text;html=1;align=center;verticalAlign=middle;resizable=0;points=[];autosize=1;strokeColor=none;fillColor=none;" parent="1" vertex="1">
          <mxGeometry x="245" width="40" height="60" as="geometry" />
        </mxCell>
        <mxCell id="WV2E-qCdzKCkwWMModYk-58" value="&lt;h6&gt;Y&lt;/h6&gt;" style="text;html=1;align=center;verticalAlign=middle;resizable=0;points=[];autosize=1;strokeColor=none;fillColor=none;" parent="1" vertex="1">
          <mxGeometry x="565" y="140" width="30" height="60" as="geometry" />
        </mxCell>
        <mxCell id="WV2E-qCdzKCkwWMModYk-60" value="" style="ellipse;whiteSpace=wrap;html=1;aspect=fixed;gradientColor=none;fillColor=#000000;" parent="1" vertex="1">
          <mxGeometry x="632.5" y="97.5" width="5" height="5" as="geometry" />
        </mxCell>
        <mxCell id="WV2E-qCdzKCkwWMModYk-63" value="" style="group" parent="1" vertex="1" connectable="0">
          <mxGeometry x="615" y="340" width="40" height="40" as="geometry" />
        </mxCell>
        <mxCell id="WV2E-qCdzKCkwWMModYk-61" value="" style="ellipse;whiteSpace=wrap;html=1;aspect=fixed;" parent="WV2E-qCdzKCkwWMModYk-63" vertex="1">
          <mxGeometry width="40" height="40" as="geometry" />
        </mxCell>
        <mxCell id="WV2E-qCdzKCkwWMModYk-62" value="" style="ellipse;whiteSpace=wrap;html=1;aspect=fixed;gradientColor=none;fillColor=#000000;" parent="WV2E-qCdzKCkwWMModYk-63" vertex="1">
          <mxGeometry x="17.5" y="17.5" width="5" height="5" as="geometry" />
        </mxCell>
        <mxCell id="WV2E-qCdzKCkwWMModYk-66" value="" style="group" parent="1" vertex="1" connectable="0">
          <mxGeometry x="1258" y="640" width="40" height="40" as="geometry" />
        </mxCell>
        <mxCell id="WV2E-qCdzKCkwWMModYk-67" value="" style="ellipse;whiteSpace=wrap;html=1;aspect=fixed;" parent="WV2E-qCdzKCkwWMModYk-66" vertex="1">
          <mxGeometry width="40" height="40" as="geometry" />
        </mxCell>
        <mxCell id="WV2E-qCdzKCkwWMModYk-68" value="" style="ellipse;whiteSpace=wrap;html=1;aspect=fixed;gradientColor=none;fillColor=#000000;" parent="WV2E-qCdzKCkwWMModYk-66" vertex="1">
          <mxGeometry x="17.5" y="17.5" width="5" height="5" as="geometry" />
        </mxCell>
        <mxCell id="WV2E-qCdzKCkwWMModYk-69" value="" style="group" parent="1" vertex="1" connectable="0">
          <mxGeometry x="1165" y="1090" width="40" height="40" as="geometry" />
        </mxCell>
        <mxCell id="WV2E-qCdzKCkwWMModYk-70" value="" style="ellipse;whiteSpace=wrap;html=1;aspect=fixed;" parent="WV2E-qCdzKCkwWMModYk-69" vertex="1">
          <mxGeometry width="40" height="40" as="geometry" />
        </mxCell>
        <mxCell id="WV2E-qCdzKCkwWMModYk-71" value="" style="ellipse;whiteSpace=wrap;html=1;aspect=fixed;gradientColor=none;fillColor=#000000;" parent="WV2E-qCdzKCkwWMModYk-69" vertex="1">
          <mxGeometry x="17.5" y="17.5" width="5" height="5" as="geometry" />
        </mxCell>
        <mxCell id="WV2E-qCdzKCkwWMModYk-72" value="" style="group" parent="1" vertex="1" connectable="0">
          <mxGeometry x="1135" y="1100" width="40" height="40" as="geometry" />
        </mxCell>
        <mxCell id="WV2E-qCdzKCkwWMModYk-73" value="" style="ellipse;whiteSpace=wrap;html=1;aspect=fixed;" parent="WV2E-qCdzKCkwWMModYk-72" vertex="1">
          <mxGeometry width="40" height="40" as="geometry" />
        </mxCell>
        <mxCell id="WV2E-qCdzKCkwWMModYk-74" value="" style="ellipse;whiteSpace=wrap;html=1;aspect=fixed;gradientColor=none;fillColor=#000000;" parent="WV2E-qCdzKCkwWMModYk-72" vertex="1">
          <mxGeometry x="17.5" y="17.5" width="5" height="5" as="geometry" />
        </mxCell>
        <mxCell id="WV2E-qCdzKCkwWMModYk-75" value="" style="group" parent="1" vertex="1" connectable="0">
          <mxGeometry x="1280" y="240" width="40" height="40" as="geometry" />
        </mxCell>
        <mxCell id="WV2E-qCdzKCkwWMModYk-76" value="" style="ellipse;whiteSpace=wrap;html=1;aspect=fixed;" parent="WV2E-qCdzKCkwWMModYk-75" vertex="1">
          <mxGeometry width="40" height="40" as="geometry" />
        </mxCell>
        <mxCell id="WV2E-qCdzKCkwWMModYk-77" value="" style="ellipse;whiteSpace=wrap;html=1;aspect=fixed;gradientColor=none;fillColor=#000000;" parent="WV2E-qCdzKCkwWMModYk-75" vertex="1">
          <mxGeometry x="17.5" y="17.5" width="5" height="5" as="geometry" />
        </mxCell>
        <mxCell id="WV2E-qCdzKCkwWMModYk-78" value="" style="group" parent="1" vertex="1" connectable="0">
          <mxGeometry x="1155" y="1070" width="40" height="40" as="geometry" />
        </mxCell>
        <mxCell id="WV2E-qCdzKCkwWMModYk-79" value="" style="ellipse;whiteSpace=wrap;html=1;aspect=fixed;" parent="WV2E-qCdzKCkwWMModYk-78" vertex="1">
          <mxGeometry width="40" height="40" as="geometry" />
        </mxCell>
        <mxCell id="WV2E-qCdzKCkwWMModYk-80" value="" style="ellipse;whiteSpace=wrap;html=1;aspect=fixed;gradientColor=none;fillColor=#000000;" parent="WV2E-qCdzKCkwWMModYk-78" vertex="1">
          <mxGeometry x="17.5" y="17.5" width="5" height="5" as="geometry" />
        </mxCell>
        <mxCell id="WV2E-qCdzKCkwWMModYk-84" value="" style="group" parent="1" vertex="1" connectable="0">
          <mxGeometry x="615" y="230" width="40" height="40" as="geometry" />
        </mxCell>
        <mxCell id="WV2E-qCdzKCkwWMModYk-85" value="" style="ellipse;whiteSpace=wrap;html=1;aspect=fixed;" parent="WV2E-qCdzKCkwWMModYk-84" vertex="1">
          <mxGeometry width="40" height="40" as="geometry" />
        </mxCell>
        <mxCell id="WV2E-qCdzKCkwWMModYk-86" value="" style="ellipse;whiteSpace=wrap;html=1;aspect=fixed;gradientColor=none;fillColor=#000000;" parent="WV2E-qCdzKCkwWMModYk-84" vertex="1">
          <mxGeometry x="17.5" y="17.5" width="5" height="5" as="geometry" />
        </mxCell>
        <mxCell id="WV2E-qCdzKCkwWMModYk-87" value="" style="group" parent="1" vertex="1" connectable="0">
          <mxGeometry x="1280" y="90" width="40" height="40" as="geometry" />
        </mxCell>
        <mxCell id="WV2E-qCdzKCkwWMModYk-88" value="" style="ellipse;whiteSpace=wrap;html=1;aspect=fixed;" parent="WV2E-qCdzKCkwWMModYk-87" vertex="1">
          <mxGeometry width="40" height="40" as="geometry" />
        </mxCell>
        <mxCell id="WV2E-qCdzKCkwWMModYk-89" value="" style="ellipse;whiteSpace=wrap;html=1;aspect=fixed;gradientColor=none;fillColor=#000000;" parent="WV2E-qCdzKCkwWMModYk-87" vertex="1">
          <mxGeometry x="17.5" y="17.5" width="5" height="5" as="geometry" />
        </mxCell>
        <mxCell id="IB5I2fbD3hVqZCZ33rX3-358" style="edgeStyle=orthogonalEdgeStyle;rounded=0;orthogonalLoop=1;jettySize=auto;html=1;entryX=0;entryY=0.5;entryDx=0;entryDy=0;" edge="1" parent="1" source="WV2E-qCdzKCkwWMModYk-90" target="IB5I2fbD3hVqZCZ33rX3-235">
          <mxGeometry relative="1" as="geometry">
            <mxPoint x="1288" y="730" as="targetPoint" />
          </mxGeometry>
        </mxCell>
        <mxCell id="WV2E-qCdzKCkwWMModYk-90" value="" style="ellipse;whiteSpace=wrap;html=1;aspect=fixed;" parent="1" vertex="1">
          <mxGeometry x="1170.5" y="710" width="40" height="40" as="geometry" />
        </mxCell>
        <mxCell id="IB5I2fbD3hVqZCZ33rX3-1001" style="edgeStyle=orthogonalEdgeStyle;rounded=0;orthogonalLoop=1;jettySize=auto;html=1;entryX=0;entryY=0.5;entryDx=0;entryDy=0;" edge="1" parent="1" source="WV2E-qCdzKCkwWMModYk-91" target="IB5I2fbD3hVqZCZ33rX3-237">
          <mxGeometry relative="1" as="geometry" />
        </mxCell>
        <mxCell id="WV2E-qCdzKCkwWMModYk-91" value="" style="ellipse;whiteSpace=wrap;html=1;aspect=fixed;" parent="1" vertex="1">
          <mxGeometry x="1358" y="710" width="40" height="40" as="geometry" />
        </mxCell>
        <mxCell id="WV2E-qCdzKCkwWMModYk-92" value="" style="ellipse;whiteSpace=wrap;html=1;aspect=fixed;" parent="1" vertex="1">
          <mxGeometry x="1520" y="160" width="40" height="40" as="geometry" />
        </mxCell>
        <mxCell id="IB5I2fbD3hVqZCZ33rX3-254" style="edgeStyle=orthogonalEdgeStyle;rounded=0;orthogonalLoop=1;jettySize=auto;html=1;entryX=0;entryY=0.5;entryDx=0;entryDy=0;" edge="1" parent="1" source="WV2E-qCdzKCkwWMModYk-93" target="WV2E-qCdzKCkwWMModYk-12">
          <mxGeometry relative="1" as="geometry" />
        </mxCell>
        <mxCell id="WV2E-qCdzKCkwWMModYk-93" value="" style="ellipse;whiteSpace=wrap;html=1;aspect=fixed;" parent="1" vertex="1">
          <mxGeometry x="1220" y="160" width="40" height="40" as="geometry" />
        </mxCell>
        <mxCell id="IB5I2fbD3hVqZCZ33rX3-242" style="edgeStyle=orthogonalEdgeStyle;rounded=0;orthogonalLoop=1;jettySize=auto;html=1;entryX=0;entryY=0.5;entryDx=0;entryDy=0;" edge="1" parent="1" source="WV2E-qCdzKCkwWMModYk-94" target="WV2E-qCdzKCkwWMModYk-95">
          <mxGeometry relative="1" as="geometry" />
        </mxCell>
        <mxCell id="WV2E-qCdzKCkwWMModYk-94" value="" style="ellipse;whiteSpace=wrap;html=1;aspect=fixed;" parent="1" vertex="1">
          <mxGeometry x="1070" y="160" width="40" height="40" as="geometry" />
        </mxCell>
        <mxCell id="IB5I2fbD3hVqZCZ33rX3-252" style="edgeStyle=orthogonalEdgeStyle;rounded=0;orthogonalLoop=1;jettySize=auto;html=1;entryX=0;entryY=0.5;entryDx=0;entryDy=0;" edge="1" parent="1" source="WV2E-qCdzKCkwWMModYk-95" target="WV2E-qCdzKCkwWMModYk-93">
          <mxGeometry relative="1" as="geometry">
            <mxPoint x="1240" y="180" as="targetPoint" />
          </mxGeometry>
        </mxCell>
        <mxCell id="WV2E-qCdzKCkwWMModYk-95" value="" style="rounded=0;whiteSpace=wrap;html=1;gradientColor=none;fillColor=#000000;" parent="1" vertex="1">
          <mxGeometry x="1140" y="160" width="10" height="40" as="geometry" />
        </mxCell>
        <mxCell id="IB5I2fbD3hVqZCZ33rX3-364" style="edgeStyle=orthogonalEdgeStyle;rounded=0;orthogonalLoop=1;jettySize=auto;html=1;entryX=0;entryY=0.5;entryDx=0;entryDy=0;" edge="1" parent="1" source="WV2E-qCdzKCkwWMModYk-96" target="IB5I2fbD3hVqZCZ33rX3-338">
          <mxGeometry relative="1" as="geometry" />
        </mxCell>
        <mxCell id="WV2E-qCdzKCkwWMModYk-96" value="" style="rounded=0;whiteSpace=wrap;html=1;gradientColor=none;fillColor=#000000;" parent="1" vertex="1">
          <mxGeometry x="735" y="230" width="10" height="40" as="geometry" />
        </mxCell>
        <mxCell id="WV2E-qCdzKCkwWMModYk-119" style="edgeStyle=orthogonalEdgeStyle;rounded=0;orthogonalLoop=1;jettySize=auto;html=1;entryX=1;entryY=0.5;entryDx=0;entryDy=0;exitX=1;exitY=0.25;exitDx=0;exitDy=0;" parent="1" source="WV2E-qCdzKCkwWMModYk-97" target="WV2E-qCdzKCkwWMModYk-21" edge="1">
          <mxGeometry relative="1" as="geometry">
            <Array as="points">
              <mxPoint x="900" y="170" />
              <mxPoint x="900" y="100" />
            </Array>
          </mxGeometry>
        </mxCell>
        <mxCell id="IB5I2fbD3hVqZCZ33rX3-1" style="edgeStyle=orthogonalEdgeStyle;rounded=0;orthogonalLoop=1;jettySize=auto;html=1;entryX=0;entryY=0.5;entryDx=0;entryDy=0;" edge="1" parent="1" source="WV2E-qCdzKCkwWMModYk-97" target="WV2E-qCdzKCkwWMModYk-15">
          <mxGeometry relative="1" as="geometry" />
        </mxCell>
        <mxCell id="WV2E-qCdzKCkwWMModYk-97" value="" style="rounded=0;whiteSpace=wrap;html=1;gradientColor=none;fillColor=#000000;" parent="1" vertex="1">
          <mxGeometry x="850" y="160" width="10" height="40" as="geometry" />
        </mxCell>
        <mxCell id="IB5I2fbD3hVqZCZ33rX3-9" style="edgeStyle=orthogonalEdgeStyle;rounded=0;orthogonalLoop=1;jettySize=auto;html=1;entryX=0;entryY=0.5;entryDx=0;entryDy=0;" edge="1" parent="1" source="WV2E-qCdzKCkwWMModYk-98" target="WV2E-qCdzKCkwWMModYk-18">
          <mxGeometry relative="1" as="geometry" />
        </mxCell>
        <mxCell id="WV2E-qCdzKCkwWMModYk-98" value="" style="rounded=0;whiteSpace=wrap;html=1;gradientColor=none;fillColor=#000000;" parent="1" vertex="1">
          <mxGeometry x="710" y="340" width="10" height="40" as="geometry" />
        </mxCell>
        <mxCell id="WV2E-qCdzKCkwWMModYk-105" style="edgeStyle=orthogonalEdgeStyle;rounded=0;orthogonalLoop=1;jettySize=auto;html=1;entryX=0;entryY=0.5;entryDx=0;entryDy=0;" parent="1" source="WV2E-qCdzKCkwWMModYk-100" target="WV2E-qCdzKCkwWMModYk-20" edge="1">
          <mxGeometry relative="1" as="geometry" />
        </mxCell>
        <mxCell id="WV2E-qCdzKCkwWMModYk-100" value="" style="rounded=0;whiteSpace=wrap;html=1;gradientColor=none;fillColor=#000000;" parent="1" vertex="1">
          <mxGeometry x="700" y="160" width="10" height="40" as="geometry" />
        </mxCell>
        <mxCell id="WV2E-qCdzKCkwWMModYk-101" value="&lt;h6&gt;lisovačka&lt;/h6&gt;" style="text;html=1;align=center;verticalAlign=middle;resizable=0;points=[];autosize=1;strokeColor=none;fillColor=none;" parent="1" vertex="1">
          <mxGeometry x="584" y="40" width="60" height="60" as="geometry" />
        </mxCell>
        <mxCell id="WV2E-qCdzKCkwWMModYk-102" value="&lt;h6&gt;pripravené na lisovanie&lt;/h6&gt;" style="text;html=1;align=center;verticalAlign=middle;resizable=0;points=[];autosize=1;strokeColor=none;fillColor=none;" parent="1" vertex="1">
          <mxGeometry x="580" y="120" width="110" height="60" as="geometry" />
        </mxCell>
        <mxCell id="WV2E-qCdzKCkwWMModYk-104" value="&lt;h6&gt;1s.&lt;/h6&gt;" style="text;html=1;align=center;verticalAlign=middle;resizable=0;points=[];autosize=1;strokeColor=none;fillColor=none;" parent="1" vertex="1">
          <mxGeometry x="690" y="180" width="30" height="60" as="geometry" />
        </mxCell>
        <mxCell id="WV2E-qCdzKCkwWMModYk-106" value="&lt;h6&gt;vylisované kusy&lt;/h6&gt;" style="text;html=1;align=center;verticalAlign=middle;resizable=0;points=[];autosize=1;strokeColor=none;fillColor=none;" parent="1" vertex="1">
          <mxGeometry x="730" y="120" width="90" height="60" as="geometry" />
        </mxCell>
        <mxCell id="WV2E-qCdzKCkwWMModYk-108" value="&lt;h6&gt;Y&lt;/h6&gt;" style="text;html=1;align=center;verticalAlign=middle;resizable=0;points=[];autosize=1;strokeColor=none;fillColor=none;" parent="1" vertex="1">
          <mxGeometry x="810" y="140" width="30" height="60" as="geometry" />
        </mxCell>
        <mxCell id="WV2E-qCdzKCkwWMModYk-112" value="&lt;h6&gt;lisovač (človek)&lt;/h6&gt;" style="text;html=1;align=center;verticalAlign=middle;resizable=0;points=[];autosize=1;strokeColor=none;fillColor=none;" parent="1" vertex="1">
          <mxGeometry x="595" y="250" width="80" height="60" as="geometry" />
        </mxCell>
        <mxCell id="WV2E-qCdzKCkwWMModYk-113" style="edgeStyle=orthogonalEdgeStyle;rounded=0;orthogonalLoop=1;jettySize=auto;html=1;entryX=0;entryY=0.75;entryDx=0;entryDy=0;exitX=0.003;exitY=0.376;exitDx=0;exitDy=0;exitPerimeter=0;" parent="1" edge="1" source="WV2E-qCdzKCkwWMModYk-85">
          <mxGeometry relative="1" as="geometry">
            <mxPoint x="535" y="190" as="targetPoint" />
            <mxPoint x="620" y="270" as="sourcePoint" />
            <Array as="points">
              <mxPoint x="520" y="235" />
              <mxPoint x="520" y="190" />
            </Array>
          </mxGeometry>
        </mxCell>
        <mxCell id="WV2E-qCdzKCkwWMModYk-120" value="&lt;h6&gt;p=1&lt;/h6&gt;" style="text;html=1;align=center;verticalAlign=middle;resizable=0;points=[];autosize=1;strokeColor=none;fillColor=none;" parent="1" vertex="1">
          <mxGeometry x="720" y="250" width="40" height="60" as="geometry" />
        </mxCell>
        <mxCell id="WV2E-qCdzKCkwWMModYk-121" style="edgeStyle=orthogonalEdgeStyle;rounded=0;orthogonalLoop=1;jettySize=auto;html=1;entryX=0;entryY=0.5;entryDx=0;entryDy=0;" parent="1" source="WV2E-qCdzKCkwWMModYk-85" target="WV2E-qCdzKCkwWMModYk-96" edge="1">
          <mxGeometry relative="1" as="geometry" />
        </mxCell>
        <mxCell id="IB5I2fbD3hVqZCZ33rX3-2" value="&lt;h6&gt;na palete&lt;/h6&gt;" style="text;html=1;align=center;verticalAlign=middle;resizable=0;points=[];autosize=1;strokeColor=none;fillColor=none;" vertex="1" parent="1">
          <mxGeometry x="910" y="180" width="60" height="60" as="geometry" />
        </mxCell>
        <mxCell id="IB5I2fbD3hVqZCZ33rX3-3" style="edgeStyle=orthogonalEdgeStyle;rounded=0;orthogonalLoop=1;jettySize=auto;html=1;exitX=1;exitY=0.75;exitDx=0;exitDy=0;entryX=0.5;entryY=0;entryDx=0;entryDy=0;" edge="1" parent="1" source="WV2E-qCdzKCkwWMModYk-97" target="WV2E-qCdzKCkwWMModYk-85">
          <mxGeometry relative="1" as="geometry">
            <Array as="points">
              <mxPoint x="900" y="190" />
              <mxPoint x="900" y="220" />
              <mxPoint x="635" y="220" />
            </Array>
          </mxGeometry>
        </mxCell>
        <mxCell id="IB5I2fbD3hVqZCZ33rX3-4" value="&lt;h6&gt;prestávka&lt;/h6&gt;" style="text;html=1;align=center;verticalAlign=middle;resizable=0;points=[];autosize=1;strokeColor=none;fillColor=none;" vertex="1" parent="1">
          <mxGeometry x="605" y="300" width="60" height="60" as="geometry" />
        </mxCell>
        <mxCell id="IB5I2fbD3hVqZCZ33rX3-6" style="edgeStyle=orthogonalEdgeStyle;rounded=0;orthogonalLoop=1;jettySize=auto;html=1;entryX=0;entryY=0.5;entryDx=0;entryDy=0;" edge="1" parent="1" source="WV2E-qCdzKCkwWMModYk-61" target="WV2E-qCdzKCkwWMModYk-98">
          <mxGeometry relative="1" as="geometry" />
        </mxCell>
        <mxCell id="IB5I2fbD3hVqZCZ33rX3-7" style="edgeStyle=orthogonalEdgeStyle;rounded=0;orthogonalLoop=1;jettySize=auto;html=1;exitX=1;exitY=0.75;exitDx=0;exitDy=0;" edge="1" parent="1" source="WV2E-qCdzKCkwWMModYk-98">
          <mxGeometry relative="1" as="geometry">
            <mxPoint x="635" y="380" as="targetPoint" />
            <Array as="points">
              <mxPoint x="740" y="370" />
              <mxPoint x="740" y="400" />
              <mxPoint x="635" y="400" />
              <mxPoint x="635" y="380" />
            </Array>
          </mxGeometry>
        </mxCell>
        <mxCell id="IB5I2fbD3hVqZCZ33rX3-8" value="&lt;h6&gt;2h.&lt;/h6&gt;" style="text;html=1;align=center;verticalAlign=middle;resizable=0;points=[];autosize=1;strokeColor=none;fillColor=none;" vertex="1" parent="1">
          <mxGeometry x="695" y="360" width="40" height="60" as="geometry" />
        </mxCell>
        <mxCell id="IB5I2fbD3hVqZCZ33rX3-11" value="&lt;h6&gt;15 min.&lt;/h6&gt;" style="text;html=1;align=center;verticalAlign=middle;resizable=0;points=[];autosize=1;strokeColor=none;fillColor=none;" vertex="1" parent="1">
          <mxGeometry x="850" y="360" width="50" height="60" as="geometry" />
        </mxCell>
        <mxCell id="IB5I2fbD3hVqZCZ33rX3-12" value="&lt;h6&gt;vygenerovaná prestávka&lt;/h6&gt;" style="text;html=1;align=center;verticalAlign=middle;resizable=0;points=[];autosize=1;strokeColor=none;fillColor=none;" vertex="1" parent="1">
          <mxGeometry x="735" y="360" width="120" height="60" as="geometry" />
        </mxCell>
        <mxCell id="IB5I2fbD3hVqZCZ33rX3-13" style="edgeStyle=orthogonalEdgeStyle;rounded=0;orthogonalLoop=1;jettySize=auto;html=1;entryX=0.111;entryY=0.728;entryDx=0;entryDy=0;entryPerimeter=0;" edge="1" parent="1" target="WV2E-qCdzKCkwWMModYk-85">
          <mxGeometry relative="1" as="geometry">
            <mxPoint x="876.2400000000002" y="362.32" as="sourcePoint" />
            <mxPoint x="615" y="260" as="targetPoint" />
            <Array as="points">
              <mxPoint x="891" y="362" />
              <mxPoint x="891" y="420" />
              <mxPoint x="585" y="420" />
              <mxPoint x="585" y="260" />
              <mxPoint x="616" y="260" />
            </Array>
          </mxGeometry>
        </mxCell>
        <mxCell id="IB5I2fbD3hVqZCZ33rX3-17" value="&lt;h6&gt;p=1&lt;/h6&gt;" style="text;html=1;align=center;verticalAlign=middle;resizable=0;points=[];autosize=1;strokeColor=none;fillColor=none;" vertex="1" parent="1">
          <mxGeometry x="700" y="40" width="40" height="60" as="geometry" />
        </mxCell>
        <mxCell id="IB5I2fbD3hVqZCZ33rX3-33" style="edgeStyle=orthogonalEdgeStyle;rounded=0;orthogonalLoop=1;jettySize=auto;html=1;entryX=0;entryY=0.5;entryDx=0;entryDy=0;" edge="1" parent="1" source="IB5I2fbD3hVqZCZ33rX3-34" target="IB5I2fbD3hVqZCZ33rX3-35">
          <mxGeometry relative="1" as="geometry" />
        </mxCell>
        <mxCell id="IB5I2fbD3hVqZCZ33rX3-34" value="" style="ellipse;whiteSpace=wrap;html=1;aspect=fixed;" vertex="1" parent="1">
          <mxGeometry x="475" y="-610" width="40" height="40" as="geometry" />
        </mxCell>
        <mxCell id="IB5I2fbD3hVqZCZ33rX3-35" value="" style="rounded=0;whiteSpace=wrap;html=1;gradientColor=none;fillColor=#000000;" vertex="1" parent="1">
          <mxGeometry x="570" y="-610" width="10" height="40" as="geometry" />
        </mxCell>
        <mxCell id="IB5I2fbD3hVqZCZ33rX3-36" value="" style="group" vertex="1" connectable="0" parent="1">
          <mxGeometry x="315" y="-610" width="40" height="40" as="geometry" />
        </mxCell>
        <mxCell id="IB5I2fbD3hVqZCZ33rX3-37" value="" style="ellipse;whiteSpace=wrap;html=1;aspect=fixed;" vertex="1" parent="IB5I2fbD3hVqZCZ33rX3-36">
          <mxGeometry width="40" height="40" as="geometry" />
        </mxCell>
        <mxCell id="IB5I2fbD3hVqZCZ33rX3-38" value="" style="ellipse;whiteSpace=wrap;html=1;aspect=fixed;gradientColor=none;fillColor=#000000;" vertex="1" parent="IB5I2fbD3hVqZCZ33rX3-36">
          <mxGeometry x="17.5" y="17.5" width="5" height="5" as="geometry" />
        </mxCell>
        <mxCell id="IB5I2fbD3hVqZCZ33rX3-39" style="edgeStyle=orthogonalEdgeStyle;rounded=0;orthogonalLoop=1;jettySize=auto;html=1;entryX=0;entryY=0.5;entryDx=0;entryDy=0;" edge="1" parent="1" source="IB5I2fbD3hVqZCZ33rX3-40" target="IB5I2fbD3hVqZCZ33rX3-34">
          <mxGeometry relative="1" as="geometry" />
        </mxCell>
        <mxCell id="IB5I2fbD3hVqZCZ33rX3-40" value="" style="rounded=0;whiteSpace=wrap;html=1;gradientColor=none;fillColor=#000000;" vertex="1" parent="1">
          <mxGeometry x="410" y="-610" width="10" height="40" as="geometry" />
        </mxCell>
        <mxCell id="IB5I2fbD3hVqZCZ33rX3-41" style="edgeStyle=orthogonalEdgeStyle;rounded=0;orthogonalLoop=1;jettySize=auto;html=1;entryX=0;entryY=0.5;entryDx=0;entryDy=0;" edge="1" parent="1" source="IB5I2fbD3hVqZCZ33rX3-37" target="IB5I2fbD3hVqZCZ33rX3-40">
          <mxGeometry relative="1" as="geometry" />
        </mxCell>
        <mxCell id="IB5I2fbD3hVqZCZ33rX3-42" style="edgeStyle=orthogonalEdgeStyle;rounded=0;orthogonalLoop=1;jettySize=auto;html=1;exitX=1;exitY=0.75;exitDx=0;exitDy=0;" edge="1" parent="1" source="IB5I2fbD3hVqZCZ33rX3-40">
          <mxGeometry relative="1" as="geometry">
            <mxPoint x="335" y="-570" as="targetPoint" />
            <Array as="points">
              <mxPoint x="440" y="-580" />
              <mxPoint x="440" y="-550" />
              <mxPoint x="335" y="-550" />
              <mxPoint x="335" y="-570" />
            </Array>
          </mxGeometry>
        </mxCell>
        <mxCell id="IB5I2fbD3hVqZCZ33rX3-43" value="&lt;h6&gt;8h.&lt;/h6&gt;" style="text;html=1;align=center;verticalAlign=middle;resizable=0;points=[];autosize=1;strokeColor=none;fillColor=none;" vertex="1" parent="1">
          <mxGeometry x="395" y="-590" width="40" height="60" as="geometry" />
        </mxCell>
        <mxCell id="IB5I2fbD3hVqZCZ33rX3-44" value="&lt;h6&gt;40 min.&lt;/h6&gt;" style="text;html=1;align=center;verticalAlign=middle;resizable=0;points=[];autosize=1;strokeColor=none;fillColor=none;" vertex="1" parent="1">
          <mxGeometry x="550" y="-590" width="50" height="60" as="geometry" />
        </mxCell>
        <mxCell id="IB5I2fbD3hVqZCZ33rX3-45" value="&lt;h6&gt;stroj v údržbe&lt;/h6&gt;" style="text;html=1;align=center;verticalAlign=middle;resizable=0;points=[];autosize=1;strokeColor=none;fillColor=none;" vertex="1" parent="1">
          <mxGeometry x="455" y="-650" width="80" height="60" as="geometry" />
        </mxCell>
        <mxCell id="IB5I2fbD3hVqZCZ33rX3-46" value="&lt;h6&gt;údržba&lt;/h6&gt;" style="text;html=1;align=center;verticalAlign=middle;resizable=0;points=[];autosize=1;strokeColor=none;fillColor=none;" vertex="1" parent="1">
          <mxGeometry x="310" y="-650" width="50" height="60" as="geometry" />
        </mxCell>
        <mxCell id="IB5I2fbD3hVqZCZ33rX3-61" value="" style="group" vertex="1" connectable="0" parent="1">
          <mxGeometry x="610" y="-110" width="290" height="120" as="geometry" />
        </mxCell>
        <mxCell id="IB5I2fbD3hVqZCZ33rX3-48" value="" style="ellipse;whiteSpace=wrap;html=1;aspect=fixed;" vertex="1" parent="IB5I2fbD3hVqZCZ33rX3-61">
          <mxGeometry x="165" y="40" width="40" height="40" as="geometry" />
        </mxCell>
        <mxCell id="IB5I2fbD3hVqZCZ33rX3-49" value="" style="rounded=0;whiteSpace=wrap;html=1;gradientColor=none;fillColor=#000000;" vertex="1" parent="IB5I2fbD3hVqZCZ33rX3-61">
          <mxGeometry x="260" y="40" width="10" height="40" as="geometry" />
        </mxCell>
        <mxCell id="IB5I2fbD3hVqZCZ33rX3-53" style="edgeStyle=orthogonalEdgeStyle;rounded=0;orthogonalLoop=1;jettySize=auto;html=1;entryX=0;entryY=0.5;entryDx=0;entryDy=0;" edge="1" parent="IB5I2fbD3hVqZCZ33rX3-61" target="IB5I2fbD3hVqZCZ33rX3-48">
          <mxGeometry relative="1" as="geometry">
            <mxPoint x="110" y="60" as="sourcePoint" />
          </mxGeometry>
        </mxCell>
        <mxCell id="IB5I2fbD3hVqZCZ33rX3-58" value="&lt;h6&gt;40 min.&lt;/h6&gt;" style="text;html=1;align=center;verticalAlign=middle;resizable=0;points=[];autosize=1;strokeColor=none;fillColor=none;" vertex="1" parent="IB5I2fbD3hVqZCZ33rX3-61">
          <mxGeometry x="240" y="60" width="50" height="60" as="geometry" />
        </mxCell>
        <mxCell id="IB5I2fbD3hVqZCZ33rX3-59" value="&lt;h6&gt;stroj v údržbe&lt;/h6&gt;" style="text;html=1;align=center;verticalAlign=middle;resizable=0;points=[];autosize=1;strokeColor=none;fillColor=none;" vertex="1" parent="IB5I2fbD3hVqZCZ33rX3-61">
          <mxGeometry x="145" width="80" height="60" as="geometry" />
        </mxCell>
        <mxCell id="IB5I2fbD3hVqZCZ33rX3-230" value="" style="rounded=0;whiteSpace=wrap;html=1;gradientColor=none;fillColor=#000000;" vertex="1" parent="IB5I2fbD3hVqZCZ33rX3-61">
          <mxGeometry x="100" y="40" width="10" height="40" as="geometry" />
        </mxCell>
        <mxCell id="IB5I2fbD3hVqZCZ33rX3-973" value="&lt;h6&gt;ÚDRŽBA&lt;/h6&gt;" style="text;html=1;align=center;verticalAlign=middle;resizable=0;points=[];autosize=1;strokeColor=none;fillColor=none;" vertex="1" parent="IB5I2fbD3hVqZCZ33rX3-61">
          <mxGeometry x="75" width="60" height="60" as="geometry" />
        </mxCell>
        <mxCell id="IB5I2fbD3hVqZCZ33rX3-64" style="edgeStyle=orthogonalEdgeStyle;rounded=0;orthogonalLoop=1;jettySize=auto;html=1;entryX=0;entryY=0;entryDx=0;entryDy=0;" edge="1" parent="1" source="IB5I2fbD3hVqZCZ33rX3-49" target="WV2E-qCdzKCkwWMModYk-21">
          <mxGeometry relative="1" as="geometry">
            <mxPoint x="590" y="30" as="targetPoint" />
            <Array as="points">
              <mxPoint x="920" y="-50" />
              <mxPoint x="920" y="-130" />
              <mxPoint x="590" y="-130" />
              <mxPoint x="590" y="86" />
            </Array>
          </mxGeometry>
        </mxCell>
        <mxCell id="IB5I2fbD3hVqZCZ33rX3-67" value="&lt;h6&gt;prevoz&lt;/h6&gt;" style="text;html=1;align=center;verticalAlign=middle;resizable=0;points=[];autosize=1;strokeColor=none;fillColor=none;" vertex="1" parent="1">
          <mxGeometry x="1065" y="120" width="50" height="60" as="geometry" />
        </mxCell>
        <mxCell id="IB5I2fbD3hVqZCZ33rX3-231" value="" style="rounded=0;whiteSpace=wrap;html=1;gradientColor=none;fillColor=#000000;" vertex="1" parent="1">
          <mxGeometry x="1368" y="1140" width="10" height="40" as="geometry" />
        </mxCell>
        <mxCell id="IB5I2fbD3hVqZCZ33rX3-232" value="" style="rounded=0;whiteSpace=wrap;html=1;gradientColor=none;fillColor=#000000;" vertex="1" parent="1">
          <mxGeometry x="1400" y="1140" width="10" height="40" as="geometry" />
        </mxCell>
        <mxCell id="IB5I2fbD3hVqZCZ33rX3-233" value="" style="rounded=0;whiteSpace=wrap;html=1;gradientColor=none;fillColor=#000000;" vertex="1" parent="1">
          <mxGeometry x="1438" y="1130" width="10" height="40" as="geometry" />
        </mxCell>
        <mxCell id="IB5I2fbD3hVqZCZ33rX3-326" style="edgeStyle=orthogonalEdgeStyle;rounded=0;orthogonalLoop=1;jettySize=auto;html=1;entryX=0;entryY=0.5;entryDx=0;entryDy=0;" edge="1" parent="1" source="IB5I2fbD3hVqZCZ33rX3-234" target="IB5I2fbD3hVqZCZ33rX3-247">
          <mxGeometry relative="1" as="geometry" />
        </mxCell>
        <mxCell id="IB5I2fbD3hVqZCZ33rX3-234" value="" style="rounded=0;whiteSpace=wrap;html=1;gradientColor=none;fillColor=#000000;" vertex="1" parent="1">
          <mxGeometry x="948" y="710" width="10" height="40" as="geometry" />
        </mxCell>
        <mxCell id="IB5I2fbD3hVqZCZ33rX3-360" style="edgeStyle=orthogonalEdgeStyle;rounded=0;orthogonalLoop=1;jettySize=auto;html=1;entryX=0;entryY=0.5;entryDx=0;entryDy=0;" edge="1" parent="1" source="IB5I2fbD3hVqZCZ33rX3-235" target="WV2E-qCdzKCkwWMModYk-91">
          <mxGeometry relative="1" as="geometry">
            <mxPoint x="1348.0000000000002" y="730" as="targetPoint" />
          </mxGeometry>
        </mxCell>
        <mxCell id="IB5I2fbD3hVqZCZ33rX3-235" value="" style="rounded=0;whiteSpace=wrap;html=1;gradientColor=none;fillColor=#000000;" vertex="1" parent="1">
          <mxGeometry x="1298" y="710" width="10" height="40" as="geometry" />
        </mxCell>
        <mxCell id="IB5I2fbD3hVqZCZ33rX3-236" value="" style="rounded=0;whiteSpace=wrap;html=1;gradientColor=none;fillColor=#000000;" vertex="1" parent="1">
          <mxGeometry x="1415" y="1090" width="10" height="40" as="geometry" />
        </mxCell>
        <mxCell id="IB5I2fbD3hVqZCZ33rX3-1003" style="edgeStyle=orthogonalEdgeStyle;rounded=0;orthogonalLoop=1;jettySize=auto;html=1;exitX=1;exitY=0.5;exitDx=0;exitDy=0;entryX=0;entryY=0.5;entryDx=0;entryDy=0;entryPerimeter=0;" edge="1" parent="1" source="IB5I2fbD3hVqZCZ33rX3-237" target="IB5I2fbD3hVqZCZ33rX3-335">
          <mxGeometry relative="1" as="geometry">
            <mxPoint x="1493" y="730" as="targetPoint" />
          </mxGeometry>
        </mxCell>
        <mxCell id="IB5I2fbD3hVqZCZ33rX3-237" value="" style="rounded=0;whiteSpace=wrap;html=1;gradientColor=none;fillColor=#000000;" vertex="1" parent="1">
          <mxGeometry x="1443" y="710" width="10" height="40" as="geometry" />
        </mxCell>
        <mxCell id="IB5I2fbD3hVqZCZ33rX3-283" style="edgeStyle=orthogonalEdgeStyle;rounded=0;orthogonalLoop=1;jettySize=auto;html=1;entryX=0.5;entryY=1;entryDx=0;entryDy=0;" edge="1" parent="1" source="IB5I2fbD3hVqZCZ33rX3-238" target="IB5I2fbD3hVqZCZ33rX3-267">
          <mxGeometry relative="1" as="geometry" />
        </mxCell>
        <mxCell id="IB5I2fbD3hVqZCZ33rX3-238" value="" style="rounded=0;whiteSpace=wrap;html=1;gradientColor=none;fillColor=#000000;" vertex="1" parent="1">
          <mxGeometry x="1560" y="-493" width="10" height="40" as="geometry" />
        </mxCell>
        <mxCell id="IB5I2fbD3hVqZCZ33rX3-330" style="edgeStyle=orthogonalEdgeStyle;rounded=0;orthogonalLoop=1;jettySize=auto;html=1;entryX=0;entryY=0.5;entryDx=0;entryDy=0;" edge="1" parent="1" source="IB5I2fbD3hVqZCZ33rX3-239" target="WV2E-qCdzKCkwWMModYk-90">
          <mxGeometry relative="1" as="geometry" />
        </mxCell>
        <mxCell id="IB5I2fbD3hVqZCZ33rX3-239" value="" style="rounded=0;whiteSpace=wrap;html=1;gradientColor=none;fillColor=#000000;" vertex="1" parent="1">
          <mxGeometry x="1106" y="710" width="10" height="40" as="geometry" />
        </mxCell>
        <mxCell id="IB5I2fbD3hVqZCZ33rX3-1012" style="edgeStyle=orthogonalEdgeStyle;rounded=0;orthogonalLoop=1;jettySize=auto;html=1;entryX=0;entryY=0.5;entryDx=0;entryDy=0;" edge="1" parent="1" source="IB5I2fbD3hVqZCZ33rX3-240" target="IB5I2fbD3hVqZCZ33rX3-341">
          <mxGeometry relative="1" as="geometry" />
        </mxCell>
        <mxCell id="IB5I2fbD3hVqZCZ33rX3-240" value="" style="rounded=0;whiteSpace=wrap;html=1;gradientColor=none;fillColor=#000000;" vertex="1" parent="1">
          <mxGeometry x="1400" y="240" width="10" height="40" as="geometry" />
        </mxCell>
        <mxCell id="IB5I2fbD3hVqZCZ33rX3-1007" style="edgeStyle=orthogonalEdgeStyle;rounded=0;orthogonalLoop=1;jettySize=auto;html=1;entryX=0;entryY=0.5;entryDx=0;entryDy=0;" edge="1" parent="1" source="IB5I2fbD3hVqZCZ33rX3-241" target="IB5I2fbD3hVqZCZ33rX3-337">
          <mxGeometry relative="1" as="geometry" />
        </mxCell>
        <mxCell id="IB5I2fbD3hVqZCZ33rX3-241" value="" style="rounded=0;whiteSpace=wrap;html=1;gradientColor=none;fillColor=#000000;" vertex="1" parent="1">
          <mxGeometry x="1573" y="710" width="10" height="40" as="geometry" />
        </mxCell>
        <mxCell id="IB5I2fbD3hVqZCZ33rX3-243" value="&lt;h6&gt;exp (15 min.)&lt;/h6&gt;" style="text;html=1;align=center;verticalAlign=middle;resizable=0;points=[];autosize=1;strokeColor=none;fillColor=none;" vertex="1" parent="1">
          <mxGeometry x="1108" y="180" width="70" height="60" as="geometry" />
        </mxCell>
        <mxCell id="IB5I2fbD3hVqZCZ33rX3-323" style="edgeStyle=orthogonalEdgeStyle;rounded=0;orthogonalLoop=1;jettySize=auto;html=1;entryX=0;entryY=0.5;entryDx=0;entryDy=0;" edge="1" parent="1" source="IB5I2fbD3hVqZCZ33rX3-244" target="IB5I2fbD3hVqZCZ33rX3-234">
          <mxGeometry relative="1" as="geometry">
            <mxPoint x="1170.6348818824404" y="540" as="targetPoint" />
            <Array as="points">
              <mxPoint x="1731" y="180" />
              <mxPoint x="1731" y="470" />
              <mxPoint x="920" y="470" />
              <mxPoint x="920" y="730" />
            </Array>
          </mxGeometry>
        </mxCell>
        <mxCell id="IB5I2fbD3hVqZCZ33rX3-244" value="" style="ellipse;whiteSpace=wrap;html=1;aspect=fixed;" vertex="1" parent="1">
          <mxGeometry x="1660" y="160" width="40" height="40" as="geometry" />
        </mxCell>
        <mxCell id="IB5I2fbD3hVqZCZ33rX3-245" value="" style="ellipse;whiteSpace=wrap;html=1;aspect=fixed;" vertex="1" parent="1">
          <mxGeometry x="1002" y="1120" width="40" height="40" as="geometry" />
        </mxCell>
        <mxCell id="IB5I2fbD3hVqZCZ33rX3-246" value="" style="ellipse;whiteSpace=wrap;html=1;aspect=fixed;" vertex="1" parent="1">
          <mxGeometry x="952" y="1140" width="40" height="40" as="geometry" />
        </mxCell>
        <mxCell id="IB5I2fbD3hVqZCZ33rX3-328" style="edgeStyle=orthogonalEdgeStyle;rounded=0;orthogonalLoop=1;jettySize=auto;html=1;" edge="1" parent="1" source="IB5I2fbD3hVqZCZ33rX3-247" target="IB5I2fbD3hVqZCZ33rX3-239">
          <mxGeometry relative="1" as="geometry" />
        </mxCell>
        <mxCell id="IB5I2fbD3hVqZCZ33rX3-247" value="" style="ellipse;whiteSpace=wrap;html=1;aspect=fixed;" vertex="1" parent="1">
          <mxGeometry x="1013" y="710" width="40" height="40" as="geometry" />
        </mxCell>
        <mxCell id="IB5I2fbD3hVqZCZ33rX3-373" style="edgeStyle=orthogonalEdgeStyle;rounded=0;orthogonalLoop=1;jettySize=auto;html=1;entryX=0;entryY=0.5;entryDx=0;entryDy=0;" edge="1" parent="1" source="IB5I2fbD3hVqZCZ33rX3-248" target="IB5I2fbD3hVqZCZ33rX3-49">
          <mxGeometry relative="1" as="geometry" />
        </mxCell>
        <mxCell id="IB5I2fbD3hVqZCZ33rX3-248" value="" style="ellipse;whiteSpace=wrap;html=1;aspect=fixed;" vertex="1" parent="1">
          <mxGeometry x="775" y="20" width="40" height="40" as="geometry" />
        </mxCell>
        <mxCell id="IB5I2fbD3hVqZCZ33rX3-253" value="&lt;h6&gt;paleta výrobkov na brúsenie&lt;/h6&gt;" style="text;html=1;align=center;verticalAlign=middle;resizable=0;points=[];autosize=1;strokeColor=none;fillColor=none;" vertex="1" parent="1">
          <mxGeometry x="1175" y="180" width="130" height="60" as="geometry" />
        </mxCell>
        <mxCell id="IB5I2fbD3hVqZCZ33rX3-257" value="&lt;h6&gt;Y&lt;/h6&gt;" style="text;html=1;align=center;verticalAlign=middle;resizable=0;points=[];autosize=1;strokeColor=none;fillColor=none;" vertex="1" parent="1">
          <mxGeometry x="1330" y="140" width="30" height="60" as="geometry" />
        </mxCell>
        <mxCell id="IB5I2fbD3hVqZCZ33rX3-258" value="&lt;h6&gt;10s.&lt;/h6&gt;" style="text;html=1;align=center;verticalAlign=middle;resizable=0;points=[];autosize=1;strokeColor=none;fillColor=none;" vertex="1" parent="1">
          <mxGeometry x="1445" y="180" width="40" height="60" as="geometry" />
        </mxCell>
        <mxCell id="IB5I2fbD3hVqZCZ33rX3-260" value="&lt;h6&gt;vybrúsené kusy&lt;/h6&gt;" style="text;html=1;align=center;verticalAlign=middle;resizable=0;points=[];autosize=1;strokeColor=none;fillColor=none;" vertex="1" parent="1">
          <mxGeometry x="1500" y="180" width="80" height="60" as="geometry" />
        </mxCell>
        <mxCell id="IB5I2fbD3hVqZCZ33rX3-261" style="edgeStyle=orthogonalEdgeStyle;rounded=0;orthogonalLoop=1;jettySize=auto;html=1;entryX=0.218;entryY=0.499;entryDx=0;entryDy=0;entryPerimeter=0;" edge="1" parent="1" source="WV2E-qCdzKCkwWMModYk-92" target="WV2E-qCdzKCkwWMModYk-10">
          <mxGeometry relative="1" as="geometry" />
        </mxCell>
        <mxCell id="IB5I2fbD3hVqZCZ33rX3-262" style="edgeStyle=orthogonalEdgeStyle;rounded=0;orthogonalLoop=1;jettySize=auto;html=1;entryX=0;entryY=0.25;entryDx=0;entryDy=0;" edge="1" parent="1" source="WV2E-qCdzKCkwWMModYk-88" target="WV2E-qCdzKCkwWMModYk-12">
          <mxGeometry relative="1" as="geometry" />
        </mxCell>
        <mxCell id="IB5I2fbD3hVqZCZ33rX3-265" value="&lt;h6&gt;na palete&lt;/h6&gt;" style="text;html=1;align=center;verticalAlign=middle;resizable=0;points=[];autosize=1;strokeColor=none;fillColor=none;" vertex="1" parent="1">
          <mxGeometry x="1650" y="180" width="60" height="60" as="geometry" />
        </mxCell>
        <mxCell id="IB5I2fbD3hVqZCZ33rX3-280" value="" style="group" vertex="1" connectable="0" parent="1">
          <mxGeometry x="1430" y="-643" width="290" height="120" as="geometry" />
        </mxCell>
        <mxCell id="IB5I2fbD3hVqZCZ33rX3-267" value="" style="ellipse;whiteSpace=wrap;html=1;aspect=fixed;" vertex="1" parent="IB5I2fbD3hVqZCZ33rX3-280">
          <mxGeometry x="165" y="40" width="40" height="40" as="geometry" />
        </mxCell>
        <mxCell id="IB5I2fbD3hVqZCZ33rX3-268" value="" style="rounded=0;whiteSpace=wrap;html=1;gradientColor=none;fillColor=#000000;" vertex="1" parent="IB5I2fbD3hVqZCZ33rX3-280">
          <mxGeometry x="260" y="40" width="10" height="40" as="geometry" />
        </mxCell>
        <mxCell id="IB5I2fbD3hVqZCZ33rX3-266" style="edgeStyle=orthogonalEdgeStyle;rounded=0;orthogonalLoop=1;jettySize=auto;html=1;entryX=0;entryY=0.5;entryDx=0;entryDy=0;" edge="1" parent="IB5I2fbD3hVqZCZ33rX3-280" source="IB5I2fbD3hVqZCZ33rX3-267" target="IB5I2fbD3hVqZCZ33rX3-268">
          <mxGeometry relative="1" as="geometry" />
        </mxCell>
        <mxCell id="IB5I2fbD3hVqZCZ33rX3-269" value="" style="group" vertex="1" connectable="0" parent="IB5I2fbD3hVqZCZ33rX3-280">
          <mxGeometry x="5" y="40" width="40" height="40" as="geometry" />
        </mxCell>
        <mxCell id="IB5I2fbD3hVqZCZ33rX3-270" value="" style="ellipse;whiteSpace=wrap;html=1;aspect=fixed;" vertex="1" parent="IB5I2fbD3hVqZCZ33rX3-269">
          <mxGeometry width="40" height="40" as="geometry" />
        </mxCell>
        <mxCell id="IB5I2fbD3hVqZCZ33rX3-271" value="" style="ellipse;whiteSpace=wrap;html=1;aspect=fixed;gradientColor=none;fillColor=#000000;" vertex="1" parent="IB5I2fbD3hVqZCZ33rX3-269">
          <mxGeometry x="17.5" y="17.5" width="5" height="5" as="geometry" />
        </mxCell>
        <mxCell id="IB5I2fbD3hVqZCZ33rX3-272" style="edgeStyle=orthogonalEdgeStyle;rounded=0;orthogonalLoop=1;jettySize=auto;html=1;entryX=0;entryY=0.5;entryDx=0;entryDy=0;" edge="1" parent="IB5I2fbD3hVqZCZ33rX3-280" source="IB5I2fbD3hVqZCZ33rX3-273" target="IB5I2fbD3hVqZCZ33rX3-267">
          <mxGeometry relative="1" as="geometry" />
        </mxCell>
        <mxCell id="IB5I2fbD3hVqZCZ33rX3-273" value="" style="rounded=0;whiteSpace=wrap;html=1;gradientColor=none;fillColor=#000000;" vertex="1" parent="IB5I2fbD3hVqZCZ33rX3-280">
          <mxGeometry x="100" y="40" width="10" height="40" as="geometry" />
        </mxCell>
        <mxCell id="IB5I2fbD3hVqZCZ33rX3-274" style="edgeStyle=orthogonalEdgeStyle;rounded=0;orthogonalLoop=1;jettySize=auto;html=1;entryX=0;entryY=0.5;entryDx=0;entryDy=0;" edge="1" parent="IB5I2fbD3hVqZCZ33rX3-280" source="IB5I2fbD3hVqZCZ33rX3-270" target="IB5I2fbD3hVqZCZ33rX3-273">
          <mxGeometry relative="1" as="geometry" />
        </mxCell>
        <mxCell id="IB5I2fbD3hVqZCZ33rX3-275" style="edgeStyle=orthogonalEdgeStyle;rounded=0;orthogonalLoop=1;jettySize=auto;html=1;exitX=1;exitY=0.75;exitDx=0;exitDy=0;" edge="1" parent="IB5I2fbD3hVqZCZ33rX3-280" source="IB5I2fbD3hVqZCZ33rX3-273">
          <mxGeometry relative="1" as="geometry">
            <mxPoint x="25" y="80" as="targetPoint" />
            <Array as="points">
              <mxPoint x="130" y="70" />
              <mxPoint x="130" y="100" />
              <mxPoint x="25" y="100" />
              <mxPoint x="25" y="80" />
            </Array>
          </mxGeometry>
        </mxCell>
        <mxCell id="IB5I2fbD3hVqZCZ33rX3-276" value="&lt;h6&gt;8h.&lt;/h6&gt;" style="text;html=1;align=center;verticalAlign=middle;resizable=0;points=[];autosize=1;strokeColor=none;fillColor=none;" vertex="1" parent="IB5I2fbD3hVqZCZ33rX3-280">
          <mxGeometry x="85" y="60" width="40" height="60" as="geometry" />
        </mxCell>
        <mxCell id="IB5I2fbD3hVqZCZ33rX3-277" value="&lt;h6&gt;40 min.&lt;/h6&gt;" style="text;html=1;align=center;verticalAlign=middle;resizable=0;points=[];autosize=1;strokeColor=none;fillColor=none;" vertex="1" parent="IB5I2fbD3hVqZCZ33rX3-280">
          <mxGeometry x="240" y="60" width="50" height="60" as="geometry" />
        </mxCell>
        <mxCell id="IB5I2fbD3hVqZCZ33rX3-278" value="&lt;h6&gt;stroj v údržbe&lt;/h6&gt;" style="text;html=1;align=center;verticalAlign=middle;resizable=0;points=[];autosize=1;strokeColor=none;fillColor=none;" vertex="1" parent="IB5I2fbD3hVqZCZ33rX3-280">
          <mxGeometry x="145" width="80" height="60" as="geometry" />
        </mxCell>
        <mxCell id="IB5I2fbD3hVqZCZ33rX3-279" value="&lt;h6&gt;údržba&lt;/h6&gt;" style="text;html=1;align=center;verticalAlign=middle;resizable=0;points=[];autosize=1;strokeColor=none;fillColor=none;" vertex="1" parent="IB5I2fbD3hVqZCZ33rX3-280">
          <mxGeometry width="50" height="60" as="geometry" />
        </mxCell>
        <mxCell id="IB5I2fbD3hVqZCZ33rX3-281" style="edgeStyle=orthogonalEdgeStyle;rounded=0;orthogonalLoop=1;jettySize=auto;html=1;exitX=0.5;exitY=0;exitDx=0;exitDy=0;entryX=0;entryY=0.5;entryDx=0;entryDy=0;" edge="1" parent="1" target="IB5I2fbD3hVqZCZ33rX3-238">
          <mxGeometry relative="1" as="geometry">
            <mxPoint x="1450" y="-443" as="sourcePoint" />
          </mxGeometry>
        </mxCell>
        <mxCell id="IB5I2fbD3hVqZCZ33rX3-282" value="&lt;h6&gt;p=1&lt;/h6&gt;" style="text;html=1;align=center;verticalAlign=middle;resizable=0;points=[];autosize=1;strokeColor=none;fillColor=none;" vertex="1" parent="1">
          <mxGeometry x="1545" y="-473" width="40" height="60" as="geometry" />
        </mxCell>
        <mxCell id="IB5I2fbD3hVqZCZ33rX3-284" style="edgeStyle=orthogonalEdgeStyle;rounded=0;orthogonalLoop=1;jettySize=auto;html=1;entryX=0;entryY=0.5;entryDx=0;entryDy=0;" edge="1" parent="1" source="IB5I2fbD3hVqZCZ33rX3-268">
          <mxGeometry relative="1" as="geometry">
            <mxPoint x="1430" y="-423" as="targetPoint" />
            <Array as="points">
              <mxPoint x="1721" y="-583" />
              <mxPoint x="1721" y="-653" />
              <mxPoint x="1410" y="-653" />
              <mxPoint x="1410" y="-423" />
            </Array>
          </mxGeometry>
        </mxCell>
        <mxCell id="IB5I2fbD3hVqZCZ33rX3-285" value="&lt;h6&gt;brúsička&lt;/h6&gt;" style="text;html=1;align=center;verticalAlign=middle;resizable=0;points=[];autosize=1;strokeColor=none;fillColor=none;" vertex="1" parent="1">
          <mxGeometry x="1225" y="90" width="60" height="60" as="geometry" />
        </mxCell>
        <mxCell id="IB5I2fbD3hVqZCZ33rX3-286" style="edgeStyle=orthogonalEdgeStyle;rounded=0;orthogonalLoop=1;jettySize=auto;html=1;entryX=0;entryY=0.75;entryDx=0;entryDy=0;" edge="1" parent="1" source="WV2E-qCdzKCkwWMModYk-76" target="WV2E-qCdzKCkwWMModYk-12">
          <mxGeometry relative="1" as="geometry" />
        </mxCell>
        <mxCell id="IB5I2fbD3hVqZCZ33rX3-289" style="edgeStyle=orthogonalEdgeStyle;rounded=0;orthogonalLoop=1;jettySize=auto;html=1;entryX=0;entryY=0.5;entryDx=0;entryDy=0;" edge="1" parent="1" source="WV2E-qCdzKCkwWMModYk-76" target="IB5I2fbD3hVqZCZ33rX3-240">
          <mxGeometry relative="1" as="geometry">
            <mxPoint x="1400" y="260" as="targetPoint" />
          </mxGeometry>
        </mxCell>
        <mxCell id="IB5I2fbD3hVqZCZ33rX3-290" style="edgeStyle=orthogonalEdgeStyle;rounded=0;orthogonalLoop=1;jettySize=auto;html=1;entryX=0;entryY=0.5;entryDx=0;entryDy=0;" edge="1" parent="1" source="IB5I2fbD3hVqZCZ33rX3-291" target="IB5I2fbD3hVqZCZ33rX3-292">
          <mxGeometry relative="1" as="geometry" />
        </mxCell>
        <mxCell id="IB5I2fbD3hVqZCZ33rX3-291" value="" style="ellipse;whiteSpace=wrap;html=1;aspect=fixed;" vertex="1" parent="1">
          <mxGeometry x="1015" y="-603" width="40" height="40" as="geometry" />
        </mxCell>
        <mxCell id="IB5I2fbD3hVqZCZ33rX3-292" value="" style="rounded=0;whiteSpace=wrap;html=1;gradientColor=none;fillColor=#000000;" vertex="1" parent="1">
          <mxGeometry x="1110" y="-603" width="10" height="40" as="geometry" />
        </mxCell>
        <mxCell id="IB5I2fbD3hVqZCZ33rX3-293" value="" style="group" vertex="1" connectable="0" parent="1">
          <mxGeometry x="855" y="-603" width="40" height="40" as="geometry" />
        </mxCell>
        <mxCell id="IB5I2fbD3hVqZCZ33rX3-294" value="" style="ellipse;whiteSpace=wrap;html=1;aspect=fixed;" vertex="1" parent="IB5I2fbD3hVqZCZ33rX3-293">
          <mxGeometry width="40" height="40" as="geometry" />
        </mxCell>
        <mxCell id="IB5I2fbD3hVqZCZ33rX3-295" value="" style="ellipse;whiteSpace=wrap;html=1;aspect=fixed;gradientColor=none;fillColor=#000000;" vertex="1" parent="IB5I2fbD3hVqZCZ33rX3-293">
          <mxGeometry x="17.5" y="17.5" width="5" height="5" as="geometry" />
        </mxCell>
        <mxCell id="IB5I2fbD3hVqZCZ33rX3-296" style="edgeStyle=orthogonalEdgeStyle;rounded=0;orthogonalLoop=1;jettySize=auto;html=1;entryX=0;entryY=0.5;entryDx=0;entryDy=0;" edge="1" parent="1" source="IB5I2fbD3hVqZCZ33rX3-297" target="IB5I2fbD3hVqZCZ33rX3-291">
          <mxGeometry relative="1" as="geometry" />
        </mxCell>
        <mxCell id="IB5I2fbD3hVqZCZ33rX3-297" value="" style="rounded=0;whiteSpace=wrap;html=1;gradientColor=none;fillColor=#000000;" vertex="1" parent="1">
          <mxGeometry x="950" y="-603" width="10" height="40" as="geometry" />
        </mxCell>
        <mxCell id="IB5I2fbD3hVqZCZ33rX3-298" value="&lt;h6&gt;prestávka&lt;/h6&gt;" style="text;html=1;align=center;verticalAlign=middle;resizable=0;points=[];autosize=1;strokeColor=none;fillColor=none;" vertex="1" parent="1">
          <mxGeometry x="845" y="-643" width="60" height="60" as="geometry" />
        </mxCell>
        <mxCell id="IB5I2fbD3hVqZCZ33rX3-299" style="edgeStyle=orthogonalEdgeStyle;rounded=0;orthogonalLoop=1;jettySize=auto;html=1;entryX=0;entryY=0.5;entryDx=0;entryDy=0;" edge="1" parent="1" source="IB5I2fbD3hVqZCZ33rX3-294" target="IB5I2fbD3hVqZCZ33rX3-297">
          <mxGeometry relative="1" as="geometry" />
        </mxCell>
        <mxCell id="IB5I2fbD3hVqZCZ33rX3-300" style="edgeStyle=orthogonalEdgeStyle;rounded=0;orthogonalLoop=1;jettySize=auto;html=1;exitX=1;exitY=0.75;exitDx=0;exitDy=0;" edge="1" parent="1" source="IB5I2fbD3hVqZCZ33rX3-297">
          <mxGeometry relative="1" as="geometry">
            <mxPoint x="875" y="-563" as="targetPoint" />
            <Array as="points">
              <mxPoint x="980" y="-573" />
              <mxPoint x="980" y="-543" />
              <mxPoint x="875" y="-543" />
              <mxPoint x="875" y="-563" />
            </Array>
          </mxGeometry>
        </mxCell>
        <mxCell id="IB5I2fbD3hVqZCZ33rX3-301" value="&lt;h6&gt;2h.&lt;/h6&gt;" style="text;html=1;align=center;verticalAlign=middle;resizable=0;points=[];autosize=1;strokeColor=none;fillColor=none;" vertex="1" parent="1">
          <mxGeometry x="935" y="-583" width="40" height="60" as="geometry" />
        </mxCell>
        <mxCell id="IB5I2fbD3hVqZCZ33rX3-302" value="&lt;h6&gt;15 min.&lt;/h6&gt;" style="text;html=1;align=center;verticalAlign=middle;resizable=0;points=[];autosize=1;strokeColor=none;fillColor=none;" vertex="1" parent="1">
          <mxGeometry x="1090" y="-583" width="50" height="60" as="geometry" />
        </mxCell>
        <mxCell id="IB5I2fbD3hVqZCZ33rX3-303" value="&lt;h6&gt;som na prestávke&lt;/h6&gt;" style="text;html=1;align=center;verticalAlign=middle;resizable=0;points=[];autosize=1;strokeColor=none;fillColor=none;" vertex="1" parent="1">
          <mxGeometry x="990" y="-583" width="90" height="60" as="geometry" />
        </mxCell>
        <mxCell id="IB5I2fbD3hVqZCZ33rX3-318" value="" style="group" vertex="1" connectable="0" parent="1">
          <mxGeometry x="1270" y="300" width="295" height="120" as="geometry" />
        </mxCell>
        <mxCell id="IB5I2fbD3hVqZCZ33rX3-305" value="" style="ellipse;whiteSpace=wrap;html=1;aspect=fixed;" vertex="1" parent="IB5I2fbD3hVqZCZ33rX3-318">
          <mxGeometry x="170" y="40" width="40" height="40" as="geometry" />
        </mxCell>
        <mxCell id="IB5I2fbD3hVqZCZ33rX3-306" value="" style="rounded=0;whiteSpace=wrap;html=1;gradientColor=none;fillColor=#000000;" vertex="1" parent="IB5I2fbD3hVqZCZ33rX3-318">
          <mxGeometry x="265" y="40" width="10" height="40" as="geometry" />
        </mxCell>
        <mxCell id="IB5I2fbD3hVqZCZ33rX3-307" value="" style="group" vertex="1" connectable="0" parent="IB5I2fbD3hVqZCZ33rX3-318">
          <mxGeometry x="10" y="40" width="40" height="40" as="geometry" />
        </mxCell>
        <mxCell id="IB5I2fbD3hVqZCZ33rX3-308" value="" style="ellipse;whiteSpace=wrap;html=1;aspect=fixed;" vertex="1" parent="IB5I2fbD3hVqZCZ33rX3-307">
          <mxGeometry width="40" height="40" as="geometry" />
        </mxCell>
        <mxCell id="IB5I2fbD3hVqZCZ33rX3-309" value="" style="ellipse;whiteSpace=wrap;html=1;aspect=fixed;gradientColor=none;fillColor=#000000;" vertex="1" parent="IB5I2fbD3hVqZCZ33rX3-307">
          <mxGeometry x="17.5" y="17.5" width="5" height="5" as="geometry" />
        </mxCell>
        <mxCell id="IB5I2fbD3hVqZCZ33rX3-310" style="edgeStyle=orthogonalEdgeStyle;rounded=0;orthogonalLoop=1;jettySize=auto;html=1;entryX=0;entryY=0.5;entryDx=0;entryDy=0;" edge="1" parent="IB5I2fbD3hVqZCZ33rX3-318" source="IB5I2fbD3hVqZCZ33rX3-311" target="IB5I2fbD3hVqZCZ33rX3-305">
          <mxGeometry relative="1" as="geometry" />
        </mxCell>
        <mxCell id="IB5I2fbD3hVqZCZ33rX3-311" value="" style="rounded=0;whiteSpace=wrap;html=1;gradientColor=none;fillColor=#000000;" vertex="1" parent="IB5I2fbD3hVqZCZ33rX3-318">
          <mxGeometry x="105" y="40" width="10" height="40" as="geometry" />
        </mxCell>
        <mxCell id="IB5I2fbD3hVqZCZ33rX3-312" value="&lt;h6&gt;prestávka&lt;/h6&gt;" style="text;html=1;align=center;verticalAlign=middle;resizable=0;points=[];autosize=1;strokeColor=none;fillColor=none;" vertex="1" parent="IB5I2fbD3hVqZCZ33rX3-318">
          <mxGeometry width="60" height="60" as="geometry" />
        </mxCell>
        <mxCell id="IB5I2fbD3hVqZCZ33rX3-313" style="edgeStyle=orthogonalEdgeStyle;rounded=0;orthogonalLoop=1;jettySize=auto;html=1;entryX=0;entryY=0.5;entryDx=0;entryDy=0;" edge="1" parent="IB5I2fbD3hVqZCZ33rX3-318" source="IB5I2fbD3hVqZCZ33rX3-308" target="IB5I2fbD3hVqZCZ33rX3-311">
          <mxGeometry relative="1" as="geometry" />
        </mxCell>
        <mxCell id="IB5I2fbD3hVqZCZ33rX3-314" style="edgeStyle=orthogonalEdgeStyle;rounded=0;orthogonalLoop=1;jettySize=auto;html=1;exitX=1;exitY=0.75;exitDx=0;exitDy=0;" edge="1" parent="IB5I2fbD3hVqZCZ33rX3-318" source="IB5I2fbD3hVqZCZ33rX3-311">
          <mxGeometry relative="1" as="geometry">
            <mxPoint x="30" y="80" as="targetPoint" />
            <Array as="points">
              <mxPoint x="135" y="70" />
              <mxPoint x="135" y="100" />
              <mxPoint x="30" y="100" />
              <mxPoint x="30" y="80" />
            </Array>
          </mxGeometry>
        </mxCell>
        <mxCell id="IB5I2fbD3hVqZCZ33rX3-315" value="&lt;h6&gt;2h.&lt;/h6&gt;" style="text;html=1;align=center;verticalAlign=middle;resizable=0;points=[];autosize=1;strokeColor=none;fillColor=none;" vertex="1" parent="IB5I2fbD3hVqZCZ33rX3-318">
          <mxGeometry x="90" y="60" width="40" height="60" as="geometry" />
        </mxCell>
        <mxCell id="IB5I2fbD3hVqZCZ33rX3-317" value="&lt;h6&gt;vygenerovaná prestávka&lt;br&gt;&lt;/h6&gt;" style="text;html=1;align=center;verticalAlign=middle;resizable=0;points=[];autosize=1;strokeColor=none;fillColor=none;" vertex="1" parent="IB5I2fbD3hVqZCZ33rX3-318">
          <mxGeometry x="130" y="60" width="120" height="60" as="geometry" />
        </mxCell>
        <mxCell id="IB5I2fbD3hVqZCZ33rX3-316" value="&lt;h6&gt;15 min.&lt;/h6&gt;" style="text;html=1;align=center;verticalAlign=middle;resizable=0;points=[];autosize=1;strokeColor=none;fillColor=none;" vertex="1" parent="IB5I2fbD3hVqZCZ33rX3-318">
          <mxGeometry x="245" y="60" width="50" height="60" as="geometry" />
        </mxCell>
        <mxCell id="IB5I2fbD3hVqZCZ33rX3-319" value="&lt;h6&gt;p=1&lt;/h6&gt;" style="text;html=1;align=center;verticalAlign=middle;resizable=0;points=[];autosize=1;strokeColor=none;fillColor=none;" vertex="1" parent="1">
          <mxGeometry x="1385" y="260" width="40" height="60" as="geometry" />
        </mxCell>
        <mxCell id="IB5I2fbD3hVqZCZ33rX3-321" style="edgeStyle=orthogonalEdgeStyle;rounded=0;orthogonalLoop=1;jettySize=auto;html=1;entryX=0;entryY=0.5;entryDx=0;entryDy=0;" edge="1" parent="1" source="IB5I2fbD3hVqZCZ33rX3-306" target="WV2E-qCdzKCkwWMModYk-76">
          <mxGeometry relative="1" as="geometry">
            <mxPoint x="1570" y="440" as="targetPoint" />
            <Array as="points">
              <mxPoint x="1571" y="360" />
              <mxPoint x="1571" y="440" />
              <mxPoint x="1240" y="440" />
              <mxPoint x="1240" y="259" />
              <mxPoint x="1280" y="259" />
            </Array>
          </mxGeometry>
        </mxCell>
        <mxCell id="IB5I2fbD3hVqZCZ33rX3-322" value="&lt;h6&gt;brúsič (človek)&lt;/h6&gt;" style="text;html=1;align=center;verticalAlign=middle;resizable=0;points=[];autosize=1;strokeColor=none;fillColor=none;" vertex="1" parent="1">
          <mxGeometry x="1260" y="260" width="80" height="60" as="geometry" />
        </mxCell>
        <mxCell id="IB5I2fbD3hVqZCZ33rX3-324" value="&lt;h6&gt;Y&lt;/h6&gt;" style="text;html=1;align=center;verticalAlign=middle;resizable=0;points=[];autosize=1;strokeColor=none;fillColor=none;" vertex="1" parent="1">
          <mxGeometry x="1565" y="140" width="30" height="60" as="geometry" />
        </mxCell>
        <mxCell id="IB5I2fbD3hVqZCZ33rX3-327" value="&lt;h6&gt;prevoz&lt;/h6&gt;" style="text;html=1;align=center;verticalAlign=middle;resizable=0;points=[];autosize=1;strokeColor=none;fillColor=none;" vertex="1" parent="1">
          <mxGeometry x="1008" y="670" width="50" height="60" as="geometry" />
        </mxCell>
        <mxCell id="IB5I2fbD3hVqZCZ33rX3-329" value="&lt;h6&gt;exp (15 min.)&lt;/h6&gt;" style="text;html=1;align=center;verticalAlign=middle;resizable=0;points=[];autosize=1;strokeColor=none;fillColor=none;" vertex="1" parent="1">
          <mxGeometry x="1076" y="730" width="70" height="60" as="geometry" />
        </mxCell>
        <mxCell id="IB5I2fbD3hVqZCZ33rX3-331" value="&lt;h6&gt;paleta výrobkov na vyrovnávanie&lt;/h6&gt;" style="text;html=1;align=center;verticalAlign=middle;resizable=0;points=[];autosize=1;strokeColor=none;fillColor=none;" vertex="1" parent="1">
          <mxGeometry x="1119" y="670" width="150" height="60" as="geometry" />
        </mxCell>
        <mxCell id="IB5I2fbD3hVqZCZ33rX3-1004" style="edgeStyle=orthogonalEdgeStyle;rounded=0;orthogonalLoop=1;jettySize=auto;html=1;entryX=0;entryY=0.5;entryDx=0;entryDy=0;" edge="1" parent="1" source="IB5I2fbD3hVqZCZ33rX3-335" target="IB5I2fbD3hVqZCZ33rX3-241">
          <mxGeometry relative="1" as="geometry">
            <mxPoint x="1578" y="730" as="targetPoint" />
          </mxGeometry>
        </mxCell>
        <mxCell id="IB5I2fbD3hVqZCZ33rX3-335" value="" style="ellipse;whiteSpace=wrap;html=1;aspect=fixed;" vertex="1" parent="1">
          <mxGeometry x="1498" y="710" width="40" height="40" as="geometry" />
        </mxCell>
        <mxCell id="IB5I2fbD3hVqZCZ33rX3-336" value="" style="ellipse;whiteSpace=wrap;html=1;aspect=fixed;" vertex="1" parent="1">
          <mxGeometry x="912" y="1170" width="40" height="40" as="geometry" />
        </mxCell>
        <mxCell id="IB5I2fbD3hVqZCZ33rX3-337" value="" style="ellipse;whiteSpace=wrap;html=1;aspect=fixed;" vertex="1" parent="1">
          <mxGeometry x="1633" y="710" width="40" height="40" as="geometry" />
        </mxCell>
        <mxCell id="IB5I2fbD3hVqZCZ33rX3-365" style="edgeStyle=orthogonalEdgeStyle;rounded=0;orthogonalLoop=1;jettySize=auto;html=1;entryX=0;entryY=0.5;entryDx=0;entryDy=0;" edge="1" parent="1" source="IB5I2fbD3hVqZCZ33rX3-338" target="WV2E-qCdzKCkwWMModYk-29">
          <mxGeometry relative="1" as="geometry">
            <Array as="points">
              <mxPoint x="850" y="250" />
              <mxPoint x="850" y="360" />
            </Array>
          </mxGeometry>
        </mxCell>
        <mxCell id="IB5I2fbD3hVqZCZ33rX3-338" value="" style="ellipse;whiteSpace=wrap;html=1;aspect=fixed;" vertex="1" parent="1">
          <mxGeometry x="799" y="230" width="40" height="40" as="geometry" />
        </mxCell>
        <mxCell id="IB5I2fbD3hVqZCZ33rX3-339" value="" style="ellipse;whiteSpace=wrap;html=1;aspect=fixed;" vertex="1" parent="1">
          <mxGeometry x="1006" y="1180" width="40" height="40" as="geometry" />
        </mxCell>
        <mxCell id="IB5I2fbD3hVqZCZ33rX3-340" value="" style="ellipse;whiteSpace=wrap;html=1;aspect=fixed;" vertex="1" parent="1">
          <mxGeometry x="1015" y="1230" width="40" height="40" as="geometry" />
        </mxCell>
        <mxCell id="IB5I2fbD3hVqZCZ33rX3-1014" style="edgeStyle=orthogonalEdgeStyle;rounded=0;orthogonalLoop=1;jettySize=auto;html=1;exitX=1;exitY=0.5;exitDx=0;exitDy=0;entryX=0;entryY=0.5;entryDx=0;entryDy=0;" edge="1" parent="1" source="IB5I2fbD3hVqZCZ33rX3-341" target="IB5I2fbD3hVqZCZ33rX3-306">
          <mxGeometry relative="1" as="geometry">
            <mxPoint x="1580" y="300" as="targetPoint" />
            <Array as="points">
              <mxPoint x="1515" y="260" />
              <mxPoint x="1515" y="360" />
            </Array>
          </mxGeometry>
        </mxCell>
        <mxCell id="IB5I2fbD3hVqZCZ33rX3-341" value="" style="ellipse;whiteSpace=wrap;html=1;aspect=fixed;" vertex="1" parent="1">
          <mxGeometry x="1468" y="240" width="40" height="40" as="geometry" />
        </mxCell>
        <mxCell id="IB5I2fbD3hVqZCZ33rX3-342" value="" style="ellipse;whiteSpace=wrap;html=1;aspect=fixed;" vertex="1" parent="1">
          <mxGeometry x="948" y="1190" width="40" height="40" as="geometry" />
        </mxCell>
        <mxCell id="IB5I2fbD3hVqZCZ33rX3-343" value="" style="group" vertex="1" connectable="0" parent="1">
          <mxGeometry x="1225" y="1150" width="40" height="40" as="geometry" />
        </mxCell>
        <mxCell id="IB5I2fbD3hVqZCZ33rX3-344" value="" style="ellipse;whiteSpace=wrap;html=1;aspect=fixed;" vertex="1" parent="IB5I2fbD3hVqZCZ33rX3-343">
          <mxGeometry width="40" height="40" as="geometry" />
        </mxCell>
        <mxCell id="IB5I2fbD3hVqZCZ33rX3-345" value="" style="ellipse;whiteSpace=wrap;html=1;aspect=fixed;gradientColor=none;fillColor=#000000;" vertex="1" parent="IB5I2fbD3hVqZCZ33rX3-343">
          <mxGeometry x="17.5" y="17.5" width="5" height="5" as="geometry" />
        </mxCell>
        <mxCell id="IB5I2fbD3hVqZCZ33rX3-346" value="" style="group" vertex="1" connectable="0" parent="1">
          <mxGeometry x="1185" y="1170" width="40" height="40" as="geometry" />
        </mxCell>
        <mxCell id="IB5I2fbD3hVqZCZ33rX3-347" value="" style="ellipse;whiteSpace=wrap;html=1;aspect=fixed;" vertex="1" parent="IB5I2fbD3hVqZCZ33rX3-346">
          <mxGeometry width="40" height="40" as="geometry" />
        </mxCell>
        <mxCell id="IB5I2fbD3hVqZCZ33rX3-348" value="" style="ellipse;whiteSpace=wrap;html=1;aspect=fixed;gradientColor=none;fillColor=#000000;" vertex="1" parent="IB5I2fbD3hVqZCZ33rX3-346">
          <mxGeometry x="17.5" y="17.5" width="5" height="5" as="geometry" />
        </mxCell>
        <mxCell id="IB5I2fbD3hVqZCZ33rX3-349" value="" style="group" vertex="1" connectable="0" parent="1">
          <mxGeometry x="1155" y="1180" width="40" height="40" as="geometry" />
        </mxCell>
        <mxCell id="IB5I2fbD3hVqZCZ33rX3-350" value="" style="ellipse;whiteSpace=wrap;html=1;aspect=fixed;" vertex="1" parent="IB5I2fbD3hVqZCZ33rX3-349">
          <mxGeometry width="40" height="40" as="geometry" />
        </mxCell>
        <mxCell id="IB5I2fbD3hVqZCZ33rX3-351" value="" style="ellipse;whiteSpace=wrap;html=1;aspect=fixed;gradientColor=none;fillColor=#000000;" vertex="1" parent="IB5I2fbD3hVqZCZ33rX3-349">
          <mxGeometry x="17.5" y="17.5" width="5" height="5" as="geometry" />
        </mxCell>
        <mxCell id="IB5I2fbD3hVqZCZ33rX3-352" value="" style="group" vertex="1" connectable="0" parent="1">
          <mxGeometry x="1175" y="1150" width="40" height="40" as="geometry" />
        </mxCell>
        <mxCell id="IB5I2fbD3hVqZCZ33rX3-353" value="" style="ellipse;whiteSpace=wrap;html=1;aspect=fixed;" vertex="1" parent="IB5I2fbD3hVqZCZ33rX3-352">
          <mxGeometry width="40" height="40" as="geometry" />
        </mxCell>
        <mxCell id="IB5I2fbD3hVqZCZ33rX3-354" value="" style="ellipse;whiteSpace=wrap;html=1;aspect=fixed;gradientColor=none;fillColor=#000000;" vertex="1" parent="IB5I2fbD3hVqZCZ33rX3-352">
          <mxGeometry x="17.5" y="17.5" width="5" height="5" as="geometry" />
        </mxCell>
        <mxCell id="IB5I2fbD3hVqZCZ33rX3-355" value="" style="group" vertex="1" connectable="0" parent="1">
          <mxGeometry x="1195" y="1130" width="40" height="40" as="geometry" />
        </mxCell>
        <mxCell id="IB5I2fbD3hVqZCZ33rX3-356" value="" style="ellipse;whiteSpace=wrap;html=1;aspect=fixed;" vertex="1" parent="IB5I2fbD3hVqZCZ33rX3-355">
          <mxGeometry width="40" height="40" as="geometry" />
        </mxCell>
        <mxCell id="IB5I2fbD3hVqZCZ33rX3-357" value="" style="ellipse;whiteSpace=wrap;html=1;aspect=fixed;gradientColor=none;fillColor=#000000;" vertex="1" parent="IB5I2fbD3hVqZCZ33rX3-355">
          <mxGeometry x="17.5" y="17.5" width="5" height="5" as="geometry" />
        </mxCell>
        <mxCell id="IB5I2fbD3hVqZCZ33rX3-359" value="&lt;h6&gt;10 min.&lt;/h6&gt;" style="text;html=1;align=center;verticalAlign=middle;resizable=0;points=[];autosize=1;strokeColor=none;fillColor=none;" vertex="1" parent="1">
          <mxGeometry x="1278" y="730" width="50" height="60" as="geometry" />
        </mxCell>
        <mxCell id="IB5I2fbD3hVqZCZ33rX3-361" value="&lt;h6&gt;10 min.&lt;/h6&gt;" style="text;html=1;align=center;verticalAlign=middle;resizable=0;points=[];autosize=1;strokeColor=none;fillColor=none;" vertex="1" parent="1">
          <mxGeometry x="1300" y="180" width="50" height="60" as="geometry" />
        </mxCell>
        <mxCell id="IB5I2fbD3hVqZCZ33rX3-366" value="&lt;h6&gt;som na prestávke&lt;/h6&gt;" style="text;html=1;align=center;verticalAlign=middle;resizable=0;points=[];autosize=1;strokeColor=none;fillColor=none;" vertex="1" parent="1">
          <mxGeometry x="770" y="245" width="90" height="60" as="geometry" />
        </mxCell>
        <mxCell id="IB5I2fbD3hVqZCZ33rX3-369" value="&lt;h6&gt;stroj v údržbe&lt;/h6&gt;" style="text;html=1;align=center;verticalAlign=middle;resizable=0;points=[];autosize=1;strokeColor=none;fillColor=none;" vertex="1" parent="1">
          <mxGeometry x="755" y="37.5" width="80" height="60" as="geometry" />
        </mxCell>
        <mxCell id="IB5I2fbD3hVqZCZ33rX3-374" style="edgeStyle=orthogonalEdgeStyle;rounded=0;orthogonalLoop=1;jettySize=auto;html=1;entryX=0;entryY=0.25;entryDx=0;entryDy=0;" edge="1" parent="1" source="IB5I2fbD3hVqZCZ33rX3-48" target="WV2E-qCdzKCkwWMModYk-28">
          <mxGeometry relative="1" as="geometry">
            <Array as="points">
              <mxPoint x="795" />
              <mxPoint x="695" />
              <mxPoint x="695" y="30" />
            </Array>
          </mxGeometry>
        </mxCell>
        <mxCell id="IB5I2fbD3hVqZCZ33rX3-375" style="edgeStyle=orthogonalEdgeStyle;rounded=0;orthogonalLoop=1;jettySize=auto;html=1;entryX=0;entryY=0.5;entryDx=0;entryDy=0;" edge="1" parent="1" source="IB5I2fbD3hVqZCZ33rX3-376" target="IB5I2fbD3hVqZCZ33rX3-377">
          <mxGeometry relative="1" as="geometry" />
        </mxCell>
        <mxCell id="IB5I2fbD3hVqZCZ33rX3-376" value="" style="rounded=0;whiteSpace=wrap;html=1;gradientColor=none;fillColor=#000000;" vertex="1" parent="1">
          <mxGeometry x="1325" y="47.5" width="10" height="40" as="geometry" />
        </mxCell>
        <mxCell id="IB5I2fbD3hVqZCZ33rX3-963" style="edgeStyle=orthogonalEdgeStyle;rounded=0;orthogonalLoop=1;jettySize=auto;html=1;entryX=0;entryY=0.5;entryDx=0;entryDy=0;" edge="1" parent="1" source="IB5I2fbD3hVqZCZ33rX3-377" target="IB5I2fbD3hVqZCZ33rX3-961">
          <mxGeometry relative="1" as="geometry">
            <mxPoint x="1450" as="targetPoint" />
          </mxGeometry>
        </mxCell>
        <mxCell id="IB5I2fbD3hVqZCZ33rX3-377" value="" style="ellipse;whiteSpace=wrap;html=1;aspect=fixed;" vertex="1" parent="1">
          <mxGeometry x="1385" y="47.5" width="40" height="40" as="geometry" />
        </mxCell>
        <mxCell id="IB5I2fbD3hVqZCZ33rX3-378" style="edgeStyle=orthogonalEdgeStyle;rounded=0;orthogonalLoop=1;jettySize=auto;html=1;entryX=0;entryY=0.5;entryDx=0;entryDy=0;" edge="1" parent="1" source="WV2E-qCdzKCkwWMModYk-88" target="IB5I2fbD3hVqZCZ33rX3-376">
          <mxGeometry relative="1" as="geometry">
            <Array as="points">
              <mxPoint x="1300" y="68" />
            </Array>
          </mxGeometry>
        </mxCell>
        <mxCell id="IB5I2fbD3hVqZCZ33rX3-379" value="&lt;h6&gt;p=1&lt;/h6&gt;" style="text;html=1;align=center;verticalAlign=middle;resizable=0;points=[];autosize=1;strokeColor=none;fillColor=none;" vertex="1" parent="1">
          <mxGeometry x="1310" y="63" width="40" height="60" as="geometry" />
        </mxCell>
        <mxCell id="IB5I2fbD3hVqZCZ33rX3-380" value="&lt;h6&gt;stroj v údržbe&lt;/h6&gt;" style="text;html=1;align=center;verticalAlign=middle;resizable=0;points=[];autosize=1;strokeColor=none;fillColor=none;" vertex="1" parent="1">
          <mxGeometry x="1363" y="63" width="80" height="60" as="geometry" />
        </mxCell>
        <mxCell id="IB5I2fbD3hVqZCZ33rX3-953" value="" style="group" vertex="1" connectable="0" parent="1">
          <mxGeometry x="980" y="300" width="40" height="40" as="geometry" />
        </mxCell>
        <mxCell id="IB5I2fbD3hVqZCZ33rX3-954" value="" style="ellipse;whiteSpace=wrap;html=1;aspect=fixed;" vertex="1" parent="IB5I2fbD3hVqZCZ33rX3-953">
          <mxGeometry width="40" height="40" as="geometry" />
        </mxCell>
        <mxCell id="IB5I2fbD3hVqZCZ33rX3-955" value="" style="ellipse;whiteSpace=wrap;html=1;aspect=fixed;gradientColor=none;fillColor=#000000;" vertex="1" parent="IB5I2fbD3hVqZCZ33rX3-953">
          <mxGeometry x="17.5" y="17.5" width="5" height="5" as="geometry" />
        </mxCell>
        <mxCell id="IB5I2fbD3hVqZCZ33rX3-975" style="edgeStyle=orthogonalEdgeStyle;rounded=0;orthogonalLoop=1;jettySize=auto;html=1;" edge="1" parent="1" source="IB5I2fbD3hVqZCZ33rX3-956">
          <mxGeometry relative="1" as="geometry">
            <mxPoint x="1125" y="320" as="targetPoint" />
          </mxGeometry>
        </mxCell>
        <mxCell id="IB5I2fbD3hVqZCZ33rX3-956" value="" style="rounded=0;whiteSpace=wrap;html=1;gradientColor=none;fillColor=#000000;" vertex="1" parent="1">
          <mxGeometry x="1075" y="300" width="10" height="40" as="geometry" />
        </mxCell>
        <mxCell id="IB5I2fbD3hVqZCZ33rX3-957" style="edgeStyle=orthogonalEdgeStyle;rounded=0;orthogonalLoop=1;jettySize=auto;html=1;entryX=0;entryY=0.5;entryDx=0;entryDy=0;" edge="1" parent="1" source="IB5I2fbD3hVqZCZ33rX3-954" target="IB5I2fbD3hVqZCZ33rX3-956">
          <mxGeometry relative="1" as="geometry" />
        </mxCell>
        <mxCell id="IB5I2fbD3hVqZCZ33rX3-958" style="edgeStyle=orthogonalEdgeStyle;rounded=0;orthogonalLoop=1;jettySize=auto;html=1;exitX=1;exitY=0.75;exitDx=0;exitDy=0;" edge="1" parent="1" source="IB5I2fbD3hVqZCZ33rX3-956">
          <mxGeometry relative="1" as="geometry">
            <mxPoint x="1000" y="340" as="targetPoint" />
            <Array as="points">
              <mxPoint x="1105" y="330" />
              <mxPoint x="1105" y="360" />
              <mxPoint x="1000" y="360" />
              <mxPoint x="1000" y="340" />
            </Array>
          </mxGeometry>
        </mxCell>
        <mxCell id="IB5I2fbD3hVqZCZ33rX3-959" value="&lt;h6&gt;8h.&lt;/h6&gt;" style="text;html=1;align=center;verticalAlign=middle;resizable=0;points=[];autosize=1;strokeColor=none;fillColor=none;" vertex="1" parent="1">
          <mxGeometry x="1060" y="320" width="40" height="60" as="geometry" />
        </mxCell>
        <mxCell id="IB5I2fbD3hVqZCZ33rX3-960" value="&lt;h6&gt;údržba&lt;/h6&gt;" style="text;html=1;align=center;verticalAlign=middle;resizable=0;points=[];autosize=1;strokeColor=none;fillColor=none;" vertex="1" parent="1">
          <mxGeometry x="973" y="260" width="50" height="60" as="geometry" />
        </mxCell>
        <mxCell id="IB5I2fbD3hVqZCZ33rX3-961" value="" style="rounded=0;whiteSpace=wrap;html=1;gradientColor=none;fillColor=#000000;" vertex="1" parent="1">
          <mxGeometry x="1490" y="-20" width="10" height="40" as="geometry" />
        </mxCell>
        <mxCell id="IB5I2fbD3hVqZCZ33rX3-962" value="&lt;h6&gt;40 min.&lt;/h6&gt;" style="text;whiteSpace=wrap;html=1;" vertex="1" parent="1">
          <mxGeometry x="1480" width="30" height="20" as="geometry" />
        </mxCell>
        <mxCell id="IB5I2fbD3hVqZCZ33rX3-964" style="edgeStyle=orthogonalEdgeStyle;rounded=0;orthogonalLoop=1;jettySize=auto;html=1;entryX=0.063;entryY=0.239;entryDx=0;entryDy=0;entryPerimeter=0;" edge="1" parent="1" source="IB5I2fbD3hVqZCZ33rX3-961" target="WV2E-qCdzKCkwWMModYk-88">
          <mxGeometry relative="1" as="geometry">
            <mxPoint x="1280" y="100" as="targetPoint" />
            <Array as="points">
              <mxPoint x="1520" />
              <mxPoint x="1520" y="-80" />
              <mxPoint x="1250" y="-80" />
              <mxPoint x="1250" y="100" />
            </Array>
          </mxGeometry>
        </mxCell>
        <mxCell id="IB5I2fbD3hVqZCZ33rX3-969" style="edgeStyle=orthogonalEdgeStyle;rounded=0;orthogonalLoop=1;jettySize=auto;html=1;entryX=0;entryY=0.25;entryDx=0;entryDy=0;exitX=0.5;exitY=1;exitDx=0;exitDy=0;" edge="1" parent="1" source="IB5I2fbD3hVqZCZ33rX3-965" target="IB5I2fbD3hVqZCZ33rX3-376">
          <mxGeometry relative="1" as="geometry">
            <Array as="points">
              <mxPoint x="1400" y="40" />
              <mxPoint x="1305" y="40" />
              <mxPoint x="1305" y="58" />
            </Array>
          </mxGeometry>
        </mxCell>
        <mxCell id="IB5I2fbD3hVqZCZ33rX3-965" value="" style="ellipse;whiteSpace=wrap;html=1;aspect=fixed;" vertex="1" parent="1">
          <mxGeometry x="1380" y="-20" width="40" height="40" as="geometry" />
        </mxCell>
        <mxCell id="IB5I2fbD3hVqZCZ33rX3-968" value="&lt;h6&gt;údržba pre brúsičku&lt;/h6&gt;" style="text;html=1;align=center;verticalAlign=middle;resizable=0;points=[];autosize=1;strokeColor=none;fillColor=none;" vertex="1" parent="1">
          <mxGeometry x="1350" y="-60" width="100" height="60" as="geometry" />
        </mxCell>
        <mxCell id="IB5I2fbD3hVqZCZ33rX3-974" value="ÚDRŽBA" style="text;html=1;align=center;verticalAlign=middle;resizable=0;points=[];autosize=1;strokeColor=none;fillColor=none;" vertex="1" parent="1">
          <mxGeometry x="1045" y="275" width="70" height="30" as="geometry" />
        </mxCell>
        <mxCell id="IB5I2fbD3hVqZCZ33rX3-978" style="edgeStyle=orthogonalEdgeStyle;rounded=0;orthogonalLoop=1;jettySize=auto;html=1;entryX=0;entryY=0.5;entryDx=0;entryDy=0;" edge="1" parent="1" source="IB5I2fbD3hVqZCZ33rX3-976" target="IB5I2fbD3hVqZCZ33rX3-965">
          <mxGeometry relative="1" as="geometry" />
        </mxCell>
        <mxCell id="IB5I2fbD3hVqZCZ33rX3-976" value="" style="rounded=0;whiteSpace=wrap;html=1;gradientColor=none;fillColor=#000000;" vertex="1" parent="1">
          <mxGeometry x="1325" y="-20" width="10" height="40" as="geometry" />
        </mxCell>
        <mxCell id="IB5I2fbD3hVqZCZ33rX3-977" value="&lt;h6&gt;ÚDRŽBA&lt;/h6&gt;" style="text;html=1;align=center;verticalAlign=middle;resizable=0;points=[];autosize=1;strokeColor=none;fillColor=none;" vertex="1" parent="1">
          <mxGeometry x="1300" y="-60" width="60" height="60" as="geometry" />
        </mxCell>
        <mxCell id="IB5I2fbD3hVqZCZ33rX3-979" value="&lt;h6&gt;Y&lt;/h6&gt;" style="text;html=1;align=center;verticalAlign=middle;resizable=0;points=[];autosize=1;strokeColor=none;fillColor=none;" vertex="1" parent="1">
          <mxGeometry x="1319" y="690" width="30" height="60" as="geometry" />
        </mxCell>
        <mxCell id="IB5I2fbD3hVqZCZ33rX3-983" value="" style="group" vertex="1" connectable="0" parent="1">
          <mxGeometry x="1403" y="470" width="290" height="230" as="geometry" />
        </mxCell>
        <mxCell id="IB5I2fbD3hVqZCZ33rX3-982" value="" style="rounded=0;whiteSpace=wrap;html=1;gradientColor=none;fillColor=#000000;" vertex="1" parent="IB5I2fbD3hVqZCZ33rX3-983">
          <mxGeometry x="-65" y="130" width="10" height="40" as="geometry" />
        </mxCell>
        <mxCell id="IB5I2fbD3hVqZCZ33rX3-984" value="" style="ellipse;whiteSpace=wrap;html=1;aspect=fixed;" vertex="1" parent="IB5I2fbD3hVqZCZ33rX3-983">
          <mxGeometry x="-5" y="40" width="40" height="40" as="geometry" />
        </mxCell>
        <mxCell id="IB5I2fbD3hVqZCZ33rX3-985" value="" style="rounded=0;whiteSpace=wrap;html=1;gradientColor=none;fillColor=#000000;" vertex="1" parent="IB5I2fbD3hVqZCZ33rX3-983">
          <mxGeometry x="90" y="40" width="10" height="40" as="geometry" />
        </mxCell>
        <mxCell id="IB5I2fbD3hVqZCZ33rX3-986" style="edgeStyle=orthogonalEdgeStyle;rounded=0;orthogonalLoop=1;jettySize=auto;html=1;entryX=0;entryY=0.5;entryDx=0;entryDy=0;" edge="1" parent="IB5I2fbD3hVqZCZ33rX3-983" target="IB5I2fbD3hVqZCZ33rX3-984">
          <mxGeometry relative="1" as="geometry">
            <mxPoint x="-60" y="60" as="sourcePoint" />
          </mxGeometry>
        </mxCell>
        <mxCell id="IB5I2fbD3hVqZCZ33rX3-987" value="&lt;h6&gt;40 min.&lt;/h6&gt;" style="text;html=1;align=center;verticalAlign=middle;resizable=0;points=[];autosize=1;strokeColor=none;fillColor=none;" vertex="1" parent="IB5I2fbD3hVqZCZ33rX3-983">
          <mxGeometry x="70" y="60" width="50" height="60" as="geometry" />
        </mxCell>
        <mxCell id="IB5I2fbD3hVqZCZ33rX3-988" value="&lt;h6&gt;stroj v údržbe&lt;/h6&gt;" style="text;html=1;align=center;verticalAlign=middle;resizable=0;points=[];autosize=1;strokeColor=none;fillColor=none;" vertex="1" parent="IB5I2fbD3hVqZCZ33rX3-983">
          <mxGeometry x="-25" width="80" height="60" as="geometry" />
        </mxCell>
        <mxCell id="IB5I2fbD3hVqZCZ33rX3-989" value="" style="rounded=0;whiteSpace=wrap;html=1;gradientColor=none;fillColor=#000000;" vertex="1" parent="IB5I2fbD3hVqZCZ33rX3-983">
          <mxGeometry x="-70" y="40" width="10" height="40" as="geometry" />
        </mxCell>
        <mxCell id="IB5I2fbD3hVqZCZ33rX3-990" value="&lt;h6&gt;ÚDRŽBA&lt;/h6&gt;" style="text;html=1;align=center;verticalAlign=middle;resizable=0;points=[];autosize=1;strokeColor=none;fillColor=none;" vertex="1" parent="IB5I2fbD3hVqZCZ33rX3-983">
          <mxGeometry x="-95" width="60" height="60" as="geometry" />
        </mxCell>
        <mxCell id="IB5I2fbD3hVqZCZ33rX3-991" style="edgeStyle=orthogonalEdgeStyle;rounded=0;orthogonalLoop=1;jettySize=auto;html=1;entryX=0;entryY=0.5;entryDx=0;entryDy=0;" edge="1" parent="IB5I2fbD3hVqZCZ33rX3-983" source="IB5I2fbD3hVqZCZ33rX3-992" target="IB5I2fbD3hVqZCZ33rX3-985">
          <mxGeometry relative="1" as="geometry" />
        </mxCell>
        <mxCell id="IB5I2fbD3hVqZCZ33rX3-992" value="" style="ellipse;whiteSpace=wrap;html=1;aspect=fixed;" vertex="1" parent="IB5I2fbD3hVqZCZ33rX3-983">
          <mxGeometry x="-5" y="130" width="40" height="40" as="geometry" />
        </mxCell>
        <mxCell id="IB5I2fbD3hVqZCZ33rX3-981" style="edgeStyle=orthogonalEdgeStyle;rounded=0;orthogonalLoop=1;jettySize=auto;html=1;entryX=0;entryY=0.5;entryDx=0;entryDy=0;" edge="1" parent="IB5I2fbD3hVqZCZ33rX3-983" source="IB5I2fbD3hVqZCZ33rX3-982" target="IB5I2fbD3hVqZCZ33rX3-992">
          <mxGeometry relative="1" as="geometry" />
        </mxCell>
        <mxCell id="IB5I2fbD3hVqZCZ33rX3-993" style="edgeStyle=orthogonalEdgeStyle;rounded=0;orthogonalLoop=1;jettySize=auto;html=1;entryX=0;entryY=0.25;entryDx=0;entryDy=0;" edge="1" parent="IB5I2fbD3hVqZCZ33rX3-983" source="IB5I2fbD3hVqZCZ33rX3-984" target="IB5I2fbD3hVqZCZ33rX3-982">
          <mxGeometry relative="1" as="geometry">
            <Array as="points">
              <mxPoint x="15" y="110" />
              <mxPoint x="-85" y="110" />
              <mxPoint x="-85" y="140" />
            </Array>
          </mxGeometry>
        </mxCell>
        <mxCell id="IB5I2fbD3hVqZCZ33rX3-997" value="&lt;h6&gt;stroj v údržbe&lt;/h6&gt;" style="text;html=1;align=center;verticalAlign=middle;resizable=0;points=[];autosize=1;strokeColor=none;fillColor=none;" vertex="1" parent="IB5I2fbD3hVqZCZ33rX3-983">
          <mxGeometry x="-25" y="150" width="80" height="60" as="geometry" />
        </mxCell>
        <mxCell id="IB5I2fbD3hVqZCZ33rX3-998" value="&lt;h6&gt;p=1&lt;/h6&gt;" style="text;html=1;align=center;verticalAlign=middle;resizable=0;points=[];autosize=1;strokeColor=none;fillColor=none;" vertex="1" parent="IB5I2fbD3hVqZCZ33rX3-983">
          <mxGeometry x="-80" y="150" width="40" height="60" as="geometry" />
        </mxCell>
        <mxCell id="IB5I2fbD3hVqZCZ33rX3-995" style="edgeStyle=orthogonalEdgeStyle;rounded=0;orthogonalLoop=1;jettySize=auto;html=1;entryX=0;entryY=0.25;entryDx=0;entryDy=0;" edge="1" parent="1" source="WV2E-qCdzKCkwWMModYk-67" target="IB5I2fbD3hVqZCZ33rX3-235">
          <mxGeometry relative="1" as="geometry" />
        </mxCell>
        <mxCell id="IB5I2fbD3hVqZCZ33rX3-980" style="edgeStyle=orthogonalEdgeStyle;rounded=0;orthogonalLoop=1;jettySize=auto;html=1;exitX=0.5;exitY=0;exitDx=0;exitDy=0;entryX=0;entryY=0.5;entryDx=0;entryDy=0;" edge="1" parent="1" target="IB5I2fbD3hVqZCZ33rX3-982" source="WV2E-qCdzKCkwWMModYk-67">
          <mxGeometry relative="1" as="geometry">
            <mxPoint x="1253" y="640" as="sourcePoint" />
            <Array as="points">
              <mxPoint x="1278" y="620" />
            </Array>
          </mxGeometry>
        </mxCell>
        <mxCell id="IB5I2fbD3hVqZCZ33rX3-996" style="edgeStyle=orthogonalEdgeStyle;rounded=0;orthogonalLoop=1;jettySize=auto;html=1;exitX=1;exitY=0.25;exitDx=0;exitDy=0;entryX=0;entryY=0.5;entryDx=0;entryDy=0;" edge="1" parent="1" source="IB5I2fbD3hVqZCZ33rX3-985" target="WV2E-qCdzKCkwWMModYk-67">
          <mxGeometry relative="1" as="geometry">
            <mxPoint x="1233" y="620" as="targetPoint" />
            <Array as="points">
              <mxPoint x="1503" y="540" />
              <mxPoint x="1528" y="540" />
              <mxPoint x="1528" y="480" />
              <mxPoint x="1233" y="480" />
              <mxPoint x="1233" y="660" />
            </Array>
          </mxGeometry>
        </mxCell>
        <mxCell id="IB5I2fbD3hVqZCZ33rX3-999" value="&lt;h6&gt;vyrovnávačka&lt;/h6&gt;" style="text;html=1;align=center;verticalAlign=middle;resizable=0;points=[];autosize=1;strokeColor=none;fillColor=none;" vertex="1" parent="1">
          <mxGeometry x="1283" y="650" width="80" height="60" as="geometry" />
        </mxCell>
        <mxCell id="IB5I2fbD3hVqZCZ33rX3-1002" value="&lt;h6&gt;10s.&lt;/h6&gt;" style="text;html=1;align=center;verticalAlign=middle;resizable=0;points=[];autosize=1;strokeColor=none;fillColor=none;" vertex="1" parent="1">
          <mxGeometry x="1428" y="730" width="40" height="60" as="geometry" />
        </mxCell>
        <mxCell id="IB5I2fbD3hVqZCZ33rX3-1006" value="&lt;h6&gt;Y&lt;/h6&gt;" style="text;html=1;align=center;verticalAlign=middle;resizable=0;points=[];autosize=1;strokeColor=none;fillColor=none;" vertex="1" parent="1">
          <mxGeometry x="1538" y="690" width="30" height="60" as="geometry" />
        </mxCell>
        <mxCell id="IB5I2fbD3hVqZCZ33rX3-1008" value="&lt;h6&gt;na palete&lt;/h6&gt;" style="text;html=1;align=center;verticalAlign=middle;resizable=0;points=[];autosize=1;strokeColor=none;fillColor=none;" vertex="1" parent="1">
          <mxGeometry x="1623" y="730" width="60" height="60" as="geometry" />
        </mxCell>
        <mxCell id="IB5I2fbD3hVqZCZ33rX3-1010" value="&lt;h6&gt;(pozn.: pokračovanie na ďalšej strane)&lt;/h6&gt;" style="text;html=1;align=center;verticalAlign=middle;resizable=0;points=[];autosize=1;strokeColor=none;fillColor=none;" vertex="1" parent="1">
          <mxGeometry x="1560" y="750" width="170" height="60" as="geometry" />
        </mxCell>
        <mxCell id="IB5I2fbD3hVqZCZ33rX3-1013" value="&lt;h6&gt;som na prestávke&lt;/h6&gt;" style="text;html=1;align=center;verticalAlign=middle;resizable=0;points=[];autosize=1;strokeColor=none;fillColor=none;" vertex="1" parent="1">
          <mxGeometry x="1430" y="260" width="90" height="60" as="geometry" />
        </mxCell>
        <mxCell id="IB5I2fbD3hVqZCZ33rX3-1015" value="" style="group" vertex="1" connectable="0" parent="1">
          <mxGeometry x="1260" y="780" width="40" height="40" as="geometry" />
        </mxCell>
        <mxCell id="IB5I2fbD3hVqZCZ33rX3-1016" value="" style="ellipse;whiteSpace=wrap;html=1;aspect=fixed;" vertex="1" parent="IB5I2fbD3hVqZCZ33rX3-1015">
          <mxGeometry width="40" height="40" as="geometry" />
        </mxCell>
        <mxCell id="IB5I2fbD3hVqZCZ33rX3-1017" value="" style="ellipse;whiteSpace=wrap;html=1;aspect=fixed;gradientColor=none;fillColor=#000000;" vertex="1" parent="IB5I2fbD3hVqZCZ33rX3-1015">
          <mxGeometry x="17.5" y="17.5" width="5" height="5" as="geometry" />
        </mxCell>
        <mxCell id="IB5I2fbD3hVqZCZ33rX3-1018" style="edgeStyle=orthogonalEdgeStyle;rounded=0;orthogonalLoop=1;jettySize=auto;html=1;entryX=0;entryY=0.5;entryDx=0;entryDy=0;" edge="1" parent="1" source="IB5I2fbD3hVqZCZ33rX3-1019" target="IB5I2fbD3hVqZCZ33rX3-1039">
          <mxGeometry relative="1" as="geometry" />
        </mxCell>
        <mxCell id="IB5I2fbD3hVqZCZ33rX3-1019" value="" style="rounded=0;whiteSpace=wrap;html=1;gradientColor=none;fillColor=#000000;" vertex="1" parent="1">
          <mxGeometry x="1380" y="780" width="10" height="40" as="geometry" />
        </mxCell>
        <mxCell id="IB5I2fbD3hVqZCZ33rX3-1020" style="edgeStyle=orthogonalEdgeStyle;rounded=0;orthogonalLoop=1;jettySize=auto;html=1;entryX=0;entryY=0.5;entryDx=0;entryDy=0;" edge="1" parent="1" source="IB5I2fbD3hVqZCZ33rX3-1016" target="IB5I2fbD3hVqZCZ33rX3-1019">
          <mxGeometry relative="1" as="geometry">
            <mxPoint x="1380" y="800" as="targetPoint" />
          </mxGeometry>
        </mxCell>
        <mxCell id="IB5I2fbD3hVqZCZ33rX3-1021" value="" style="group" vertex="1" connectable="0" parent="1">
          <mxGeometry x="1250" y="840" width="295" height="120" as="geometry" />
        </mxCell>
        <mxCell id="IB5I2fbD3hVqZCZ33rX3-1022" value="" style="ellipse;whiteSpace=wrap;html=1;aspect=fixed;" vertex="1" parent="IB5I2fbD3hVqZCZ33rX3-1021">
          <mxGeometry x="170" y="40" width="40" height="40" as="geometry" />
        </mxCell>
        <mxCell id="IB5I2fbD3hVqZCZ33rX3-1023" value="" style="rounded=0;whiteSpace=wrap;html=1;gradientColor=none;fillColor=#000000;" vertex="1" parent="IB5I2fbD3hVqZCZ33rX3-1021">
          <mxGeometry x="265" y="40" width="10" height="40" as="geometry" />
        </mxCell>
        <mxCell id="IB5I2fbD3hVqZCZ33rX3-1024" value="" style="group" vertex="1" connectable="0" parent="IB5I2fbD3hVqZCZ33rX3-1021">
          <mxGeometry x="10" y="40" width="40" height="40" as="geometry" />
        </mxCell>
        <mxCell id="IB5I2fbD3hVqZCZ33rX3-1025" value="" style="ellipse;whiteSpace=wrap;html=1;aspect=fixed;" vertex="1" parent="IB5I2fbD3hVqZCZ33rX3-1024">
          <mxGeometry width="40" height="40" as="geometry" />
        </mxCell>
        <mxCell id="IB5I2fbD3hVqZCZ33rX3-1026" value="" style="ellipse;whiteSpace=wrap;html=1;aspect=fixed;gradientColor=none;fillColor=#000000;" vertex="1" parent="IB5I2fbD3hVqZCZ33rX3-1024">
          <mxGeometry x="17.5" y="17.5" width="2.5" height="2.5" as="geometry" />
        </mxCell>
        <mxCell id="IB5I2fbD3hVqZCZ33rX3-1027" style="edgeStyle=orthogonalEdgeStyle;rounded=0;orthogonalLoop=1;jettySize=auto;html=1;entryX=0;entryY=0.5;entryDx=0;entryDy=0;" edge="1" parent="IB5I2fbD3hVqZCZ33rX3-1021" source="IB5I2fbD3hVqZCZ33rX3-1028" target="IB5I2fbD3hVqZCZ33rX3-1022">
          <mxGeometry relative="1" as="geometry" />
        </mxCell>
        <mxCell id="IB5I2fbD3hVqZCZ33rX3-1028" value="" style="rounded=0;whiteSpace=wrap;html=1;gradientColor=none;fillColor=#000000;" vertex="1" parent="IB5I2fbD3hVqZCZ33rX3-1021">
          <mxGeometry x="105" y="40" width="10" height="40" as="geometry" />
        </mxCell>
        <mxCell id="IB5I2fbD3hVqZCZ33rX3-1029" value="&lt;h6&gt;prestávka&lt;/h6&gt;" style="text;html=1;align=center;verticalAlign=middle;resizable=0;points=[];autosize=1;strokeColor=none;fillColor=none;" vertex="1" parent="IB5I2fbD3hVqZCZ33rX3-1021">
          <mxGeometry width="60" height="60" as="geometry" />
        </mxCell>
        <mxCell id="IB5I2fbD3hVqZCZ33rX3-1030" style="edgeStyle=orthogonalEdgeStyle;rounded=0;orthogonalLoop=1;jettySize=auto;html=1;entryX=0;entryY=0.5;entryDx=0;entryDy=0;" edge="1" parent="IB5I2fbD3hVqZCZ33rX3-1021" source="IB5I2fbD3hVqZCZ33rX3-1025" target="IB5I2fbD3hVqZCZ33rX3-1028">
          <mxGeometry relative="1" as="geometry" />
        </mxCell>
        <mxCell id="IB5I2fbD3hVqZCZ33rX3-1031" style="edgeStyle=orthogonalEdgeStyle;rounded=0;orthogonalLoop=1;jettySize=auto;html=1;exitX=1;exitY=0.75;exitDx=0;exitDy=0;" edge="1" parent="IB5I2fbD3hVqZCZ33rX3-1021" source="IB5I2fbD3hVqZCZ33rX3-1028">
          <mxGeometry relative="1" as="geometry">
            <mxPoint x="30" y="80" as="targetPoint" />
            <Array as="points">
              <mxPoint x="135" y="70" />
              <mxPoint x="135" y="100" />
              <mxPoint x="30" y="100" />
              <mxPoint x="30" y="80" />
            </Array>
          </mxGeometry>
        </mxCell>
        <mxCell id="IB5I2fbD3hVqZCZ33rX3-1032" value="&lt;h6&gt;2h.&lt;/h6&gt;" style="text;html=1;align=center;verticalAlign=middle;resizable=0;points=[];autosize=1;strokeColor=none;fillColor=none;" vertex="1" parent="IB5I2fbD3hVqZCZ33rX3-1021">
          <mxGeometry x="90" y="60" width="40" height="60" as="geometry" />
        </mxCell>
        <mxCell id="IB5I2fbD3hVqZCZ33rX3-1033" value="&lt;h6&gt;vygenerovaná prestávka&lt;br&gt;&lt;/h6&gt;" style="text;html=1;align=center;verticalAlign=middle;resizable=0;points=[];autosize=1;strokeColor=none;fillColor=none;" vertex="1" parent="IB5I2fbD3hVqZCZ33rX3-1021">
          <mxGeometry x="130" y="60" width="120" height="60" as="geometry" />
        </mxCell>
        <mxCell id="IB5I2fbD3hVqZCZ33rX3-1034" value="&lt;h6&gt;15 min.&lt;/h6&gt;" style="text;html=1;align=center;verticalAlign=middle;resizable=0;points=[];autosize=1;strokeColor=none;fillColor=none;" vertex="1" parent="IB5I2fbD3hVqZCZ33rX3-1021">
          <mxGeometry x="245" y="60" width="50" height="60" as="geometry" />
        </mxCell>
        <mxCell id="IB5I2fbD3hVqZCZ33rX3-1035" value="&lt;h6&gt;p=1&lt;/h6&gt;" style="text;html=1;align=center;verticalAlign=middle;resizable=0;points=[];autosize=1;strokeColor=none;fillColor=none;" vertex="1" parent="1">
          <mxGeometry x="1365" y="800" width="40" height="60" as="geometry" />
        </mxCell>
        <mxCell id="IB5I2fbD3hVqZCZ33rX3-1036" style="edgeStyle=orthogonalEdgeStyle;rounded=0;orthogonalLoop=1;jettySize=auto;html=1;entryX=0;entryY=0.5;entryDx=0;entryDy=0;" edge="1" parent="1" source="IB5I2fbD3hVqZCZ33rX3-1023" target="IB5I2fbD3hVqZCZ33rX3-1016">
          <mxGeometry relative="1" as="geometry">
            <mxPoint x="1550" y="980" as="targetPoint" />
            <Array as="points">
              <mxPoint x="1551" y="900" />
              <mxPoint x="1551" y="980" />
              <mxPoint x="1220" y="980" />
              <mxPoint x="1220" y="799" />
              <mxPoint x="1250" y="799" />
            </Array>
          </mxGeometry>
        </mxCell>
        <mxCell id="IB5I2fbD3hVqZCZ33rX3-1037" value="&lt;h6&gt;vyrovnávač (človek)&lt;/h6&gt;" style="text;html=1;align=center;verticalAlign=middle;resizable=0;points=[];autosize=1;strokeColor=none;fillColor=none;" vertex="1" parent="1">
          <mxGeometry x="1230" y="800" width="100" height="60" as="geometry" />
        </mxCell>
        <mxCell id="IB5I2fbD3hVqZCZ33rX3-1038" style="edgeStyle=orthogonalEdgeStyle;rounded=0;orthogonalLoop=1;jettySize=auto;html=1;exitX=1;exitY=0.5;exitDx=0;exitDy=0;entryX=0;entryY=0.5;entryDx=0;entryDy=0;" edge="1" parent="1" source="IB5I2fbD3hVqZCZ33rX3-1039" target="IB5I2fbD3hVqZCZ33rX3-1023">
          <mxGeometry relative="1" as="geometry">
            <mxPoint x="1560" y="840" as="targetPoint" />
            <Array as="points">
              <mxPoint x="1495" y="800" />
              <mxPoint x="1495" y="900" />
            </Array>
          </mxGeometry>
        </mxCell>
        <mxCell id="IB5I2fbD3hVqZCZ33rX3-1039" value="" style="ellipse;whiteSpace=wrap;html=1;aspect=fixed;" vertex="1" parent="1">
          <mxGeometry x="1448" y="780" width="40" height="40" as="geometry" />
        </mxCell>
        <mxCell id="IB5I2fbD3hVqZCZ33rX3-1040" value="&lt;h6&gt;som na prestávke&lt;/h6&gt;" style="text;html=1;align=center;verticalAlign=middle;resizable=0;points=[];autosize=1;strokeColor=none;fillColor=none;" vertex="1" parent="1">
          <mxGeometry x="1410" y="800" width="90" height="60" as="geometry" />
        </mxCell>
        <mxCell id="IB5I2fbD3hVqZCZ33rX3-1042" style="edgeStyle=orthogonalEdgeStyle;rounded=0;orthogonalLoop=1;jettySize=auto;html=1;entryX=0;entryY=0.75;entryDx=0;entryDy=0;" edge="1" parent="1" source="IB5I2fbD3hVqZCZ33rX3-1016" target="IB5I2fbD3hVqZCZ33rX3-235">
          <mxGeometry relative="1" as="geometry">
            <Array as="points">
              <mxPoint x="1280" y="740" />
            </Array>
          </mxGeometry>
        </mxCell>
        <mxCell id="IB5I2fbD3hVqZCZ33rX3-1043" value="STROJE PO 8 HODINACH (PO SMENE) MAJU HROMADNU UDRZBU" style="text;html=1;align=center;verticalAlign=middle;resizable=0;points=[];autosize=1;strokeColor=none;fillColor=none;" vertex="1" parent="1">
          <mxGeometry x="215" y="-402" width="410" height="30" as="geometry" />
        </mxCell>
        <mxCell id="IB5I2fbD3hVqZCZ33rX3-1044" value="ZAMESTNANCI MAJU KAZDY PO ODROBENI 2 HODIN NÁROK NA 15 MIN. PAUZU. (NIE HROMADNE PO X HODINÁCH AKO STROJE)&amp;nbsp;" style="text;html=1;align=center;verticalAlign=middle;resizable=0;points=[];autosize=1;strokeColor=none;fillColor=none;" vertex="1" parent="1">
          <mxGeometry x="215" y="-372" width="770" height="30" as="geometry" />
        </mxCell>
      </root>
    </mxGraphModel>
  </diagram>
</mxfile>
